<svg width="25" height="198" viewBox="0 0 25 198" fill="none" xmlns="http://www.w3.org/2000/svg">
<path d="M6.15273 121.923L6.15273 122.173L5.89384 122.173L5.90288 121.915L6.15273 121.923ZM10.3247 125.588L10.3247 125.838L10.0747 125.838L10.0747 125.588L10.3247 125.588ZM10.5898 72.4047L10.3398 72.4047L10.3398 72.1547L10.5898 72.1547L10.5898 72.4047ZM6.15273 75.898L5.9029 75.9071L5.89345 75.648L6.15273 75.648L6.15273 75.898ZM9.6408 98.9535L9.77243 98.741L10.11 98.95L9.77558 99.1641L9.6408 98.9535ZM11.7273 192.963L11.5246 193.109L11.5246 193.109L11.7273 192.963ZM11.4494 192.577L11.2064 192.636L11.6521 192.431L11.4494 192.577ZM8.5087 188.283L8.72155 188.152L8.779 188.245L8.7494 188.35L8.5087 188.283ZM6.15274 190.569L6.08895 190.327L6.10207 190.324L6.15274 190.569ZM4.96797 193.496L5.17076 193.35L4.76518 193.642L4.96797 193.496ZM4.84798 193.329L5.05077 193.183L5.05078 193.183L4.84798 193.329ZM5.48843 188.768L5.33561 188.57L5.33562 188.57L5.48843 188.768ZM5.56505 188.393C5.67432 188.309 5.83132 188.329 5.91572 188.438C6.00011 188.547 5.97994 188.704 5.87066 188.789L5.71785 188.591L5.56505 188.393ZM11.5093 192.824L11.2664 192.883L11.2664 192.883L11.5093 192.824ZM9.75602 193.622L9.54771 193.761L9.54771 193.761L9.75602 193.622ZM7.78768 195.9L7.59651 196.061L7.59042 196.054L7.58489 196.046L7.78768 195.9ZM7.23004 194.498L7.47705 194.46L7.47705 194.46L7.23004 194.498ZM6.37541 133.301L6.58532 133.165L6.74642 133.414L6.47371 133.531L6.37541 133.301ZM4.85523 130.951L4.64532 131.087L4.64532 131.087L4.85523 130.951ZM5.14397 133.828L5.04567 133.598L5.04567 133.598L5.14397 133.828ZM8.66552 129.027L8.91552 129.027L8.43358 129.12L8.66552 129.027ZM8.57113 128.792L8.33919 128.885L8.33919 128.885L8.57113 128.792ZM6.32608 129.546L6.56974 129.49L6.56974 129.49L6.32608 129.546ZM6.44678 129.865L6.66629 129.745L6.6663 129.745L6.44678 129.865ZM1.31364 176.197L1.0812 176.289L1.54451 176.101L1.31364 176.197ZM1.70634 177.189L1.47544 177.285L1.4739 177.281L1.70634 177.189ZM4.48789 169.375L4.53341 169.129L5.28973 169.269L4.59559 169.6L4.48789 169.375ZM3.67531 172.88L3.84946 172.7L3.84946 172.7L3.67531 172.88ZM5.84307 178.896L5.74141 178.667L5.74141 178.667L5.84307 178.896ZM6.73991 175.773L6.86215 175.992L6.86215 175.992L6.73991 175.773ZM1.70634 188.283L1.95605 188.271L1.99343 189.046L1.51058 188.438L1.70634 188.283ZM5.86703 178.949L5.72047 178.747L5.72047 178.747L5.86703 178.949ZM16.414 189.151L16.414 188.901L16.4616 189.397L16.414 189.151ZM5.0561 173.32L5.0805 173.569L5.0805 173.569L5.0561 173.32ZM11.8838 176.879L11.7128 176.696L11.7128 176.696L11.8838 176.879ZM11.9664 166.436L11.7403 166.329L11.7469 166.317L11.9664 166.436ZM12.7397 165.017L12.8641 164.8L13.0761 164.921L12.9592 165.136L12.7397 165.017ZM8.90134 172.88L8.66392 172.801L8.66515 172.798L8.90134 172.88ZM20.9227 186.213L21.0804 186.407L20.3908 186.967L20.687 186.129L20.9227 186.213ZM24 178.896L24.25 178.896L24.25 178.905L24.2494 178.913L24 178.896ZM16.414 178.896L16.1701 178.841L16.1723 178.831L16.1753 178.822L16.414 178.896ZM19.5629 178.049L19.3551 177.91L19.3599 177.903L19.3651 177.896L19.5629 178.049ZM16.414 183.16L16.197 183.036L16.3659 182.74L16.5973 182.99L16.414 183.16ZM10.7138 196.906L10.7717 197.149L10.7138 196.906ZM13.4033 170.406L13.1683 170.491L13.1683 170.491L13.4033 170.406ZM11.9664 172.642L12.1568 172.48L12.4696 172.847L11.989 172.891L11.9664 172.642ZM11.0278 168.42L10.7814 168.377L10.7872 168.344L10.8017 168.313L11.0278 168.42ZM11.0408 168.392L11.2668 168.499L11.2668 168.499L11.0408 168.392ZM5.24941 173.28L5.17689 173.041L5.1769 173.041L5.24941 173.28ZM7.24898 169.531L7.01048 169.456L7.01048 169.456L7.24898 169.531ZM7.41949 169.012L7.18308 168.931L7.18692 168.92L7.19179 168.909L7.41949 169.012ZM10.6172 162.494L10.8449 162.597L10.8449 162.597L10.6172 162.494ZM7.49036 154.003L7.25576 154.09L7.25042 154.075L7.24691 154.06L7.49036 154.003ZM7.09716 152.32L7.33826 152.253L7.34061 152.263L7.09716 152.32ZM7.41949 161.493L7.65686 161.415L7.66949 161.453L7.66949 161.493L7.41949 161.493ZM4.81791 153.624L5.05527 153.545L5.05527 153.545L4.81791 153.624ZM4.0853 161.493L3.83815 161.455L4.3353 161.493L4.0853 161.493ZM7.41949 167.012L7.46947 167.257L7.46024 167.259L7.45089 167.26L7.41949 167.012ZM8.5087 166.79L8.73294 166.901L8.73294 166.901L8.5087 166.79ZM8.90134 165.975L8.67364 165.872L8.69569 165.824L8.7357 165.788L8.90134 165.975ZM7.11869 144.769L7.31621 144.616L7.32922 144.633L7.33922 144.652L7.11869 144.769ZM5.59326 142.803L5.79079 142.65L5.79079 142.65L5.59326 142.803ZM5.60116 147.169L5.66871 147.41L5.0419 147.586L5.38987 147.035L5.60116 147.169ZM11.3513 141.604L11.5727 141.72L11.5727 141.72L11.3513 141.604ZM12.4938 149.306L12.7095 149.18L12.7095 149.18L12.4938 149.306ZM8.52438 142.547L8.30894 142.674L8.30877 142.673L8.52438 142.547ZM7.69167 150.037L7.46564 150.144L7.46564 150.144L7.69167 150.037ZM8.90134 151.754L9.14481 151.697L9.31872 152.443L8.73823 151.943L8.90134 151.754ZM10.759 151.588L10.5385 151.706L10.5385 151.706L10.759 151.588ZM9.18648 148.643L9.40702 148.525L9.40702 148.525L9.18648 148.643ZM8.11375 135.949L8.30817 135.792L8.30817 135.792L8.11375 135.949ZM5.07851 135.598L5.16121 135.362L5.16121 135.362L5.07851 135.598ZM6.08915 135.769L6.11244 136.018L6.10082 136.019L6.08915 136.019L6.08915 135.769ZM6.54009 130.025L6.32356 130.149L6.32356 130.149L6.54009 130.025ZM7.64866 131.843L7.43855 131.978L7.43855 131.978L7.64866 131.843ZM8.66552 133.301L8.46853 133.455L8.46853 133.455L8.66552 133.301ZM7.68055 128.045L7.64298 128.292L7.64298 128.292L7.68055 128.045ZM7.69673 126.17L7.54901 126.372L7.54901 126.372L7.69673 126.17ZM7.57751 140.933L7.79312 140.807L7.79312 140.807L7.57751 140.933ZM7.36632 137.126L7.13787 137.024L7.13787 137.024L7.36632 137.126ZM11.8006 184.621L12.0502 184.635L12.05 184.638L11.8006 184.621ZM11.5093 182.641L11.2631 182.598L11.349 182.109L11.6907 182.469L11.5093 182.641ZM9.60084 183.975L9.45819 183.769L9.59547 183.674L9.73607 183.764L9.60084 183.975ZM13.1424 184.197L12.8931 184.215L12.8777 184L13.0883 183.953L13.1424 184.197ZM14.7619 187.154L15.0083 187.111L15.1262 187.793L14.5997 187.344L14.7619 187.154ZM8.5087 182.705L8.71626 182.565L8.90886 182.852L8.57615 182.946L8.5087 182.705ZM9.90154 163.956L10.0013 164.185L9.366 164.461L9.67838 163.843L9.90154 163.956ZM13.4033 163.383L13.6312 163.486L13.5252 163.721L13.2935 163.607L13.4033 163.383ZM11.9906 156.865L12.2406 156.87L12.2406 156.87L11.9906 156.865ZM17.7022 154.003L17.9247 153.889L18.181 154.389L17.6381 154.245L17.7022 154.003ZM11.8348 154.717L11.5885 154.759L11.5855 154.742L11.585 154.724L11.8348 154.717ZM11.3513 152.909L11.5712 153.028L11.3075 153.515L11.1166 152.995L11.3513 152.909ZM13.4033 151.072L13.6317 150.97L13.7699 151.28L13.4325 151.32L13.4033 151.072ZM7.20722 148.706L6.973 148.793L6.973 148.793L7.20722 148.706ZM7.15466 151.298L7.36605 151.165L7.45737 151.309L7.35564 151.447L7.15466 151.298ZM5.06368 148.742L4.83682 148.636L4.84276 148.625L5.06368 148.742ZM9.54548 193.001L9.29779 193.035L9.29779 193.035L9.54548 193.001ZM11.5138 196.464L11.693 196.639L11.693 196.639L11.5138 196.464ZM12.1152 193.731L11.8736 193.795L11.8736 193.795L12.1152 193.731ZM7.34111 192.815L7.58488 192.87L7.58488 192.87L7.34111 192.815ZM11.7273 5.03713L11.9301 5.18333L11.9301 5.18333L11.7273 5.03713ZM11.4494 5.4227L11.6521 5.5689L11.2064 5.36361L11.4494 5.4227ZM8.5087 9.71706L8.7494 9.64951L8.779 9.75495L8.72155 9.8482L8.5087 9.71706ZM6.15274 7.4311L6.10199 7.67626L6.08904 7.67284L6.15274 7.4311ZM4.84798 4.67058L5.05077 4.81679L5.05077 4.81679L4.84798 4.67058ZM5.48843 9.23178L5.64124 9.03392L5.64124 9.03392L5.48843 9.23178ZM5.87067 9.21112C5.97994 9.29552 6.00011 9.45252 5.91571 9.56179C5.83131 9.67107 5.67431 9.69123 5.56504 9.60683L5.71785 9.40898L5.87067 9.21112ZM11.5093 5.1762L11.2664 5.11712L11.2664 5.11711L11.5093 5.1762ZM9.75602 4.3776L9.54771 4.23937L9.54771 4.23937L9.75602 4.3776ZM7.78768 2.0998L7.58489 1.95359L7.59042 1.94592L7.59651 1.93869L7.78768 2.0998ZM7.23004 3.50158L7.47705 3.54014L7.47705 3.54014L7.23004 3.50158ZM6.37541 64.6988L6.4737 64.4689L6.74641 64.5855L6.58532 64.8345L6.37541 64.6988ZM4.85522 67.0488L4.64531 66.913L4.64531 66.913L4.85522 67.0488ZM5.14397 64.1722L5.04567 64.402L5.04567 64.402L5.14397 64.1722ZM8.66551 68.9735L8.43357 68.8802L8.91551 68.9735L8.66551 68.9735ZM8.57112 69.2081L8.33918 69.1149L8.33918 69.1148L8.57112 69.2081ZM6.32607 68.454L6.56974 68.5099L6.56974 68.5099L6.32607 68.454ZM6.44677 68.1351L6.66629 68.2547L6.66629 68.2547L6.44677 68.1351ZM1.31364 21.8028L1.54451 21.8987L1.0812 21.7107L1.31364 21.8028ZM1.70634 20.8108L1.47386 20.7188L1.47547 20.7149L1.70634 20.8108ZM4.48789 28.6251L4.59559 28.3995L5.28973 28.7309L4.53341 28.871L4.48789 28.6251ZM3.67531 25.1202L3.84946 25.2996L3.84946 25.2996L3.67531 25.1202ZM5.84306 19.1043L5.74141 19.3327L5.74141 19.3327L5.84306 19.1043ZM6.73991 22.2265L6.86215 22.0085L6.86215 22.0085L6.73991 22.2265ZM1.70634 9.71706L1.51058 9.56158L1.99343 8.95364L1.95605 9.7291L1.70634 9.71706ZM5.86703 19.0506L5.72047 19.2532L5.72047 19.2532L5.86703 19.0506ZM16.414 8.84867L16.4616 8.60324L16.414 9.09867L16.414 8.84867ZM5.0561 24.6797L5.08049 24.4309L5.08049 24.4309L5.0561 24.6797ZM11.8838 21.1214L11.7128 21.3038L11.7128 21.3038L11.8838 21.1214ZM11.9664 31.5636L11.7466 31.6833L11.7407 31.671L11.9664 31.5636ZM12.7397 32.9834L12.9592 32.8638L13.0761 33.0785L12.8641 33.2002L12.7397 32.9834ZM8.90134 25.1202L8.66512 25.2022L8.66395 25.1986L8.90134 25.1202ZM20.9227 11.7874L20.687 11.8707L20.3908 11.0326L21.0804 11.5934L20.9227 11.7874ZM24 19.1043L24.2494 19.0866L24.25 19.0954L24.25 19.1043L24 19.1043ZM16.414 19.1043L16.1753 19.1784L16.1723 19.1689L16.1701 19.1591L16.414 19.1043ZM19.5629 19.951L19.3651 20.1039L19.3599 20.0971L19.3551 20.09L19.5629 19.951ZM16.414 14.84L16.5973 15.0101L16.3659 15.2595L16.197 14.9642L16.414 14.84ZM10.7138 1.09394L10.7717 0.850749L10.7717 0.850749L10.7138 1.09394ZM13.4033 27.5937L13.6384 27.6787L13.6384 27.6787L13.4033 27.5937ZM11.9664 25.3582L11.989 25.1092L12.4696 25.1527L12.1568 25.5202L11.9664 25.3582ZM11.0278 29.5803L10.8017 29.6871L10.7872 29.6563L10.7814 29.6228L11.0278 29.5803ZM11.0408 29.6079L11.2668 29.5011L11.2668 29.5011L11.0408 29.6079ZM5.24941 24.7201L5.1769 24.9594L5.17689 24.9593L5.24941 24.7201ZM7.24898 28.4692L7.01048 28.5441L7.01048 28.5441L7.24898 28.4692ZM7.41949 28.9877L7.19179 29.0909L7.18691 29.0801L7.18308 29.069L7.41949 28.9877ZM10.6172 35.506L10.8449 35.4028L10.8449 35.4028L10.6172 35.506ZM7.49035 43.9968L7.24691 43.9399L7.25042 43.9249L7.25575 43.9104L7.49035 43.9968ZM7.09716 45.6799L7.34081 45.7369L7.33805 45.7468L7.09716 45.6799ZM7.41949 36.507L7.66949 36.507L7.66949 36.5472L7.65685 36.5854L7.41949 36.507ZM4.8179 44.3763L5.05527 44.4548L5.05527 44.4548L4.8179 44.3763ZM4.0853 36.507L4.3353 36.507L3.83815 36.5446L4.0853 36.507ZM7.41949 30.9876L7.45089 30.7396L7.46023 30.7408L7.46946 30.7427L7.41949 30.9876ZM8.5087 31.2098L8.73294 31.0993L8.73294 31.0993L8.5087 31.2098ZM8.90134 32.0246L8.7357 32.2119L8.69569 32.1765L8.67364 32.1278L8.90134 32.0246ZM7.11868 53.2305L7.33922 53.3483L7.32922 53.367L7.3162 53.3838L7.11868 53.2305ZM5.59326 55.1967L5.79078 55.3499L5.79078 55.3499L5.59326 55.1967ZM5.60116 50.8309L5.38986 50.9646L5.04189 50.4143L5.66871 50.5902L5.60116 50.8309ZM11.3513 56.3958L11.1299 56.5118L11.1299 56.5118L11.3513 56.3958ZM12.4938 48.694L12.7095 48.8205L12.7095 48.8205L12.4938 48.694ZM8.52438 55.4533L8.30877 55.3268L8.30894 55.3265L8.52438 55.4533ZM7.69166 47.9626L7.46563 47.8558L7.46563 47.8558L7.69166 47.9626ZM8.90134 46.2463L8.73823 46.0568L9.31872 45.5571L9.14481 46.3031L8.90134 46.2463ZM10.759 46.4118L10.9795 46.5295L10.9795 46.5295L10.759 46.4118ZM9.18648 49.3573L9.40702 49.475L9.40702 49.475L9.18648 49.3573ZM8.11375 62.051L8.30817 62.2081L8.30817 62.2081L8.11375 62.051ZM5.07851 62.4024L5.1612 62.6383L5.1612 62.6383L5.07851 62.4024ZM6.08914 62.2309L6.08914 61.9809L6.10081 61.9809L6.11244 61.982L6.08914 62.2309ZM6.54009 67.9755L6.32355 67.8505L6.32355 67.8505L6.54009 67.9755ZM7.64866 66.1574L7.43854 66.0219L7.43854 66.0219L7.64866 66.1574ZM8.66551 64.6988L8.46852 64.5448L8.46852 64.5448L8.66551 64.6988ZM7.68054 69.9548L7.64297 69.7076L7.64297 69.7076L7.68054 69.9548ZM7.69672 71.8299L7.54901 71.6282L7.54901 71.6282L7.69672 71.8299ZM7.57751 57.0666L7.3619 56.9401L7.3619 56.9401L7.57751 57.0666ZM7.36631 60.8745L7.13787 60.976L7.13787 60.976L7.36631 60.8745ZM11.8006 13.3789L12.05 13.3619L12.0502 13.3647L11.8006 13.3789ZM11.5093 15.3586L11.6907 15.5306L11.349 15.8909L11.2631 15.4018L11.5093 15.3586ZM9.60084 14.0253L9.73607 14.2356L9.59547 14.326L9.45819 14.2306L9.60084 14.0253ZM13.1424 13.8031L13.0883 14.0471L12.8777 14.0004L12.8931 13.7853L13.1424 13.8031ZM14.7619 10.8461L14.5997 10.6559L15.1262 10.2068L15.0083 10.8887L14.7619 10.8461ZM8.5087 15.2952L8.57615 15.0545L8.90886 15.1477L8.71626 15.4346L8.5087 15.2952ZM9.90154 34.0444L9.67838 34.1571L9.366 33.5385L10.0013 33.8152L9.90154 34.0444ZM13.4033 34.6171L13.2935 34.3925L13.5252 34.2792L13.6312 34.5143L13.4033 34.6171ZM11.9906 41.1354L12.2406 41.1296L12.2406 41.1296L11.9906 41.1354ZM17.7022 43.9968L17.6381 43.7552L18.181 43.6112L17.9246 44.1109L17.7022 43.9968ZM11.8348 43.2834L11.585 43.2759L11.5855 43.2582L11.5885 43.2408L11.8348 43.2834ZM11.3513 45.091L11.1166 45.0048L11.3075 44.4851L11.5712 44.972L11.3513 45.091ZM13.4033 46.9284L13.4325 46.6801L13.7699 46.7198L13.6317 47.0301L13.4033 46.9284ZM7.20722 49.2942L6.973 49.2068L6.973 49.2068L7.20722 49.2942ZM7.15466 46.702L7.35563 46.5533L7.45737 46.6908L7.36605 46.8354L7.15466 46.702ZM5.06367 49.2578L4.84247 49.3749L4.83711 49.3634L5.06367 49.2578ZM9.54548 4.99914L9.29779 4.9652L9.29779 4.9652L9.54548 4.99914ZM11.5138 1.53558L11.693 1.36124L11.693 1.36124L11.5138 1.53558ZM12.1152 4.26866L11.8736 4.20453L11.8736 4.20453L12.1152 4.26866ZM7.34111 5.1855L7.58488 5.13003L7.58488 5.13003L7.34111 5.1855ZM14.6249 72.4047L14.6249 72.1547L15.5026 72.1547L14.7566 72.6172L14.6249 72.4047ZM12.5937 73.6639L12.3502 73.6072L12.3737 73.5061L12.4619 73.4514L12.5937 73.6639ZM14.6249 125.588L14.7725 125.386L15.3898 125.838L14.6249 125.838L14.6249 125.588ZM12.4994 124.032L12.3518 124.234L12.2842 124.185L12.26 124.104L12.4994 124.032ZM8.7291 120.646L8.66024 120.887L8.47111 120.832L8.47932 120.636L8.7291 120.646ZM8.7291 77.1848L8.47934 77.1957L8.47056 76.9944L8.66534 76.943L8.7291 77.1848ZM12.6672 98.9559L12.7822 98.7339L13.2037 98.9522L12.7852 99.1763L12.6672 98.9559ZM6.15273 121.923C6.15273 121.673 6.15286 121.673 6.15299 121.673C6.15306 121.673 6.15322 121.673 6.15335 121.673C6.15362 121.673 6.15396 121.673 6.15436 121.673C6.15515 121.673 6.1562 121.674 6.1575 121.674C6.16009 121.674 6.16369 121.674 6.16824 121.674C6.17735 121.674 6.19033 121.674 6.2069 121.674C6.24005 121.675 6.28765 121.677 6.34765 121.681C6.46757 121.689 6.63748 121.704 6.84082 121.733C7.24622 121.793 7.79104 121.912 8.33926 122.153C8.88763 122.393 9.44821 122.76 9.872 123.318C10.2982 123.88 10.5747 124.621 10.5747 125.588L10.3247 125.588L10.0747 125.588C10.0747 124.723 9.82973 124.09 9.47373 123.621C9.11527 123.148 8.63284 122.828 8.13821 122.61C7.64343 122.393 7.14525 122.283 6.7684 122.228C6.58061 122.201 6.42458 122.187 6.31634 122.18C6.26227 122.177 6.22023 122.175 6.19227 122.174C6.17829 122.174 6.16783 122.174 6.16116 122.174C6.15782 122.174 6.15543 122.174 6.15401 122.173C6.1533 122.173 6.15284 122.173 6.15263 122.173C6.15252 122.173 6.15247 122.173 6.15249 122.173C6.1525 122.173 6.15256 122.173 6.15256 122.173C6.15264 122.173 6.15273 122.173 6.15273 121.923ZM10.5898 72.4047L10.8398 72.4047C10.8398 73.336 10.5422 74.0485 10.0873 74.5858C9.63628 75.1184 9.04175 75.466 8.46284 75.6939C7.88327 75.9221 7.30725 76.035 6.87855 76.0912C6.66356 76.1195 6.48399 76.1336 6.35743 76.1407C6.29411 76.1443 6.24394 76.1461 6.20912 76.147C6.19171 76.1475 6.17812 76.1477 6.16864 76.1478C6.16389 76.1479 6.16017 76.1479 6.15751 76.1479C6.15618 76.1479 6.15511 76.1479 6.15432 76.148C6.15392 76.148 6.15359 76.148 6.15332 76.148C6.15319 76.148 6.15304 76.148 6.15298 76.148C6.15285 76.148 6.15273 76.148 6.15273 75.898C6.15273 75.648 6.15265 75.648 6.15259 75.648C6.15259 75.648 6.15255 75.648 6.15255 75.648C6.15256 75.648 6.15263 75.648 6.15277 75.648C6.15304 75.648 6.15359 75.648 6.15439 75.6479C6.15599 75.6479 6.15864 75.6479 6.16229 75.6479C6.16959 75.6478 6.18092 75.6476 6.19601 75.6472C6.22618 75.6464 6.27135 75.6448 6.32935 75.6415C6.44544 75.635 6.61252 75.6219 6.8135 75.5955C7.21676 75.5426 7.75 75.4372 8.2797 75.2287C8.81006 75.0199 9.3248 74.7125 9.70573 74.2627C10.0827 73.8174 10.3398 73.22 10.3398 72.4047L10.5898 72.4047ZM9.6408 98.9535L9.77558 99.1641C8.83388 99.7669 8.13302 101.131 7.62925 103.005C7.12966 104.863 6.83999 107.159 6.67219 109.543C6.33561 114.325 6.49218 119.368 6.40258 121.932L6.15273 121.923L5.90288 121.915C5.99022 119.415 5.83708 114.287 6.17342 109.508C6.34208 107.111 6.63453 104.779 7.14639 102.875C7.65406 100.986 8.39397 99.4548 9.50602 98.7429L9.6408 98.9535ZM6.15273 75.898L6.40257 75.8888C6.49319 78.3739 6.35722 83.4741 6.70377 88.3138C6.8766 90.7274 7.16866 93.0532 7.66446 94.9257C7.91231 95.8618 8.20904 96.6765 8.56242 97.3294C8.91652 97.9836 9.31945 98.4604 9.77243 98.741L9.6408 98.9535L9.50917 99.166C8.95583 98.8233 8.50061 98.2656 8.1227 97.5674C7.74408 96.8679 7.43497 96.0124 7.18112 95.0536C6.6735 93.1365 6.3787 90.7746 6.20505 88.3495C5.85864 83.5119 5.99129 78.3308 5.9029 75.9071L6.15273 75.898ZM11.7273 192.963L11.5246 193.109L11.2466 192.724L11.4494 192.577L11.6521 192.431L11.9301 192.817L11.7273 192.963ZM8.5087 188.283L8.7494 188.35L8.02838 190.92L7.78768 190.852L7.54698 190.785L8.268 188.215L8.5087 188.283ZM7.78768 190.852L7.63262 191.048C7.40568 190.869 7.22954 190.783 7.03467 190.75C6.8318 190.716 6.58377 190.735 6.20341 190.814L6.15274 190.569L6.10207 190.324C6.49896 190.242 6.82101 190.207 7.11759 190.257C7.42217 190.308 7.67487 190.444 7.94274 190.656L7.78768 190.852ZM4.96797 193.496L4.76518 193.642L4.64519 193.476L4.84798 193.329L5.05078 193.183L5.17076 193.35L4.96797 193.496ZM5.48843 188.768L5.33562 188.57L5.56505 188.393L5.71785 188.591L5.87066 188.789L5.64124 188.966L5.48843 188.768ZM11.4494 192.577L11.6923 192.518L11.7522 192.765L11.5093 192.824L11.2664 192.883L11.2064 192.636L11.4494 192.577ZM11.5093 192.824L11.7522 192.765C11.9391 193.533 11.6351 194.128 11.1017 194.342C10.5824 194.55 9.94173 194.354 9.54771 193.761L9.75602 193.622L9.96433 193.484C10.2452 193.907 10.6449 193.986 10.9155 193.878C11.1719 193.775 11.4071 193.461 11.2664 192.883L11.5093 192.824ZM4.84798 193.329L4.6452 193.476C3.52753 191.925 3.83336 189.731 5.33561 188.57L5.48843 188.768L5.64124 188.966C4.35592 189.959 4.08828 191.848 5.05077 193.183L4.84798 193.329ZM6.15274 190.569L6.21643 190.811C5.76356 190.93 5.34694 191.354 5.12315 191.885C4.89911 192.416 4.90056 192.975 5.17076 193.35L4.96797 193.496L4.76518 193.642C4.35602 193.075 4.39944 192.315 4.66241 191.691C4.92565 191.066 5.44109 190.498 6.08904 190.327L6.15274 190.569ZM7.78768 195.9L7.58489 196.046C7.22649 195.549 7.0648 195.061 6.98303 194.537L7.23004 194.498L7.47705 194.46C7.54943 194.924 7.68745 195.334 7.99047 195.754L7.78768 195.9ZM4.08531 128.329L3.83531 128.329L3.83531 128.106L4.08531 128.106L4.33531 128.106L4.33531 128.329L4.08531 128.329ZM6.37541 133.301L6.1655 133.437L4.64532 131.087L4.85523 130.951L5.06514 130.815L6.58532 133.165L6.37541 133.301ZM6.37541 133.301L6.47371 133.531L5.24227 134.058L5.14397 133.828L5.04567 133.598L6.27711 133.071L6.37541 133.301ZM2.94025 132.302L3.19025 132.302L3.19025 132.51L2.94025 132.51L2.69025 132.51L2.69025 132.302L2.94025 132.302ZM8.66552 129.027L8.43358 129.12L8.33919 128.885L8.57113 128.792L8.80307 128.699L8.89746 128.933L8.66552 129.027ZM4.08531 128.106L3.83531 128.106C3.83531 126.667 4.96451 125.486 6.37541 125.486L6.37541 125.736L6.37541 125.986C5.25673 125.986 4.33531 126.927 4.33531 128.106L4.08531 128.106ZM5.14397 133.828L5.24227 134.058C4.01523 134.582 2.69025 133.644 2.69025 132.302L2.94025 132.302L3.19025 132.302C3.19025 133.312 4.17299 133.971 5.04567 133.598L5.14397 133.828ZM4.08531 128.329L4.33531 128.329C4.33531 129.215 4.58964 130.08 5.06514 130.815L4.85523 130.951L4.64532 131.087C4.11691 130.27 3.83531 129.31 3.83531 128.329L4.08531 128.329ZM6.32608 129.546L6.56974 129.49C6.59031 129.58 6.62289 129.666 6.66629 129.745L6.44678 129.865L6.22726 129.985C6.1619 129.865 6.11314 129.736 6.08241 129.602L6.32608 129.546ZM1.31364 176.197L1.54609 176.105L1.93879 177.097L1.70634 177.189L1.4739 177.281L1.0812 176.289L1.31364 176.197ZM4.48789 169.375L4.59559 169.6C3.57243 170.089 3.2184 170.675 3.1768 171.193C3.13375 171.728 3.41639 172.28 3.84946 172.7L3.67531 172.88L3.50117 173.059C3.00389 172.576 2.61933 171.888 2.67841 171.153C2.73894 170.4 3.25637 169.686 4.38019 169.149L4.48789 169.375ZM1.70634 177.189L1.93721 177.093C2.57255 178.622 4.27741 179.319 5.74141 178.667L5.84307 178.896L5.94472 179.124C4.21345 179.895 2.21417 179.063 1.47548 177.285L1.70634 177.189ZM6.73991 175.773L6.86215 175.992C5.98332 176.484 4.77267 177.021 3.68148 177.221C3.13676 177.32 2.59977 177.34 2.14211 177.211C1.67326 177.079 1.28922 176.79 1.08278 176.293L1.31364 176.197L1.54451 176.101C1.68433 176.438 1.93504 176.634 2.2777 176.73C2.63154 176.83 3.08283 176.822 3.59144 176.729C4.6069 176.543 5.76312 176.034 6.61766 175.555L6.73991 175.773ZM6.73991 175.773L6.84061 176.002C5.6085 176.545 4.09841 176.521 2.88981 175.929C1.66888 175.331 0.757939 174.153 0.757939 172.42L1.00794 172.42L1.25794 172.42C1.25794 173.948 2.04741 174.96 3.10968 175.48C4.18428 176.006 5.54018 176.028 6.6392 175.545L6.73991 175.773ZM1.70634 188.283L1.51058 188.438C0.922662 187.698 0.481268 186.344 0.941126 184.638C1.40089 182.932 2.75481 180.893 5.72047 178.747L5.86703 178.949L6.01359 179.152C3.10723 181.255 1.84459 183.207 1.4239 184.768C1.00331 186.329 1.41758 187.517 1.90211 188.127L1.70634 188.283ZM1.70634 188.283L1.45663 188.295C1.43874 187.924 1.55383 187.459 1.786 186.933C2.0202 186.403 2.38203 185.791 2.88038 185.121C3.87734 183.779 5.43086 182.187 7.63675 180.516L7.78768 180.716L7.93861 180.915C5.76282 182.563 4.24523 184.122 3.28171 185.419C2.79983 186.068 2.45909 186.647 2.24338 187.135C2.02565 187.628 1.9435 188.01 1.95605 188.271L1.70634 188.283ZM12.3348 189.456L12.3348 189.206C13.9083 189.206 14.7245 189.224 16.3665 188.906L16.414 189.151L16.4616 189.397C14.7684 189.725 13.9102 189.706 12.3348 189.706L12.3348 189.456ZM3.67531 172.88L3.84946 172.7C4.25693 173.096 4.80891 173.093 5.03171 173.072L5.0561 173.32L5.0805 173.569C4.8173 173.595 4.07201 173.613 3.50117 173.059L3.67531 172.88ZM7.78768 180.716L7.61677 180.533L11.7128 176.696L11.8838 176.879L12.0547 177.061L7.95859 180.898L7.78768 180.716ZM11.9664 166.436L11.7469 166.317L12.5201 164.897L12.7397 165.017L12.9592 165.136L12.186 166.556L11.9664 166.436ZM8.90134 172.88L8.66515 172.798L9.23595 171.153L9.47214 171.234L9.70833 171.316L9.13753 172.962L8.90134 172.88ZM20.9227 186.213L20.7649 186.019C21.7078 185.252 22.3769 184.464 22.8495 183.381C23.325 182.291 23.6083 180.887 23.7506 178.878L24 178.896L24.2494 178.913C24.1054 180.946 23.8162 182.415 23.3077 183.581C22.7962 184.753 22.0698 185.602 21.0804 186.407L20.9227 186.213ZM24 178.896L23.75 178.896C23.75 177.096 23.3786 175.931 22.8405 175.256C22.3141 174.595 21.6073 174.375 20.838 174.501C20.0559 174.63 19.2027 175.121 18.4429 175.904C17.6856 176.684 17.0349 177.74 16.6528 178.97L16.414 178.896L16.1753 178.822C16.5804 177.517 17.2715 176.393 18.0842 175.556C18.8944 174.721 19.8393 174.159 20.7568 174.008C21.6873 173.855 22.5817 174.128 23.2317 174.944C23.8699 175.746 24.25 177.042 24.25 178.896L24 178.896ZM19.5629 178.049L19.7707 178.188C18.8325 179.591 18.4867 181.277 18.1482 182.451C18.0648 182.741 17.9799 183.004 17.8841 183.22C17.7909 183.43 17.6735 183.627 17.5078 183.75C17.3207 183.888 17.1001 183.912 16.8724 183.823C16.6649 183.743 16.4537 183.57 16.2307 183.33L16.414 183.16L16.5973 182.99C16.8038 183.213 16.9526 183.318 17.054 183.358C17.1352 183.389 17.1724 183.376 17.21 183.348C17.2691 183.304 17.3435 183.205 17.4272 183.017C17.5084 182.834 17.5856 182.598 17.6677 182.313C17.9912 181.191 18.3611 179.396 19.3551 177.91L19.5629 178.049ZM7.78768 195.9L7.97885 195.739C8.35243 196.182 8.75551 196.473 9.19072 196.624C9.62506 196.775 10.1092 196.793 10.6558 196.663L10.7138 196.906L10.7717 197.149C10.1472 197.298 9.56448 197.283 9.0267 197.097C8.48978 196.91 8.01542 196.558 7.59651 196.061L7.78768 195.9ZM20.9227 186.213L20.687 186.129C21.5116 183.796 21.7749 181.641 21.7021 179.998C21.6657 179.176 21.5454 178.489 21.3738 177.974C21.1982 177.448 20.9838 177.147 20.7936 177.033L20.9227 176.818L21.0517 176.604C21.399 176.814 21.6621 177.259 21.8481 177.816C22.0382 178.386 22.1637 179.121 22.2016 179.976C22.2774 181.687 22.0032 183.906 21.1584 186.296L20.9227 186.213ZM19.5629 178.049L19.3651 177.896C19.8328 177.291 20.3158 176.778 20.8354 176.584L20.9227 176.818L21.0099 177.053C20.6382 177.191 20.2312 177.593 19.7607 178.202L19.5629 178.049ZM20.9227 176.818L20.8354 176.584C21.2367 176.435 21.6451 176.481 22.0415 176.764C22.4208 177.035 22.7834 177.519 23.1489 178.231L22.9265 178.345L22.7041 178.459C22.3514 177.772 22.0332 177.373 21.7506 177.171C21.4853 176.981 21.2508 176.963 21.0099 177.053L20.9227 176.818ZM13.4033 170.406L13.1683 170.491L11.7314 166.522L11.9664 166.436L12.2015 166.351L13.6384 170.321L13.4033 170.406ZM9.47214 171.234L9.71262 171.166C9.88714 171.78 10.0783 172.086 10.3638 172.249C10.6645 172.42 11.1276 172.467 11.9439 172.393L11.9664 172.642L11.989 172.891C11.1698 172.965 10.5646 172.938 10.1166 172.683C9.65318 172.42 9.41497 171.948 9.23166 171.303L9.47214 171.234ZM11.0278 168.42L10.8017 168.313L10.8148 168.285L11.0408 168.392L11.2668 168.499L11.2538 168.527L11.0278 168.42ZM11.0408 168.392L10.8148 168.285C11.163 167.548 11.5116 166.811 11.7407 166.329L11.9664 166.436L12.1922 166.544C11.9635 167.025 11.6153 167.762 11.2668 168.499L11.0408 168.392ZM11.9664 172.642L11.7761 172.804C11.2727 172.212 10.4085 170.534 10.7814 168.377L11.0278 168.42L11.2741 168.462C10.9299 170.453 11.7356 171.985 12.1568 172.48L11.9664 172.642ZM8.90134 172.88L9.13873 172.958C8.91072 173.649 8.66591 174.229 8.31305 174.726C7.95747 175.227 7.50026 175.634 6.86215 175.992L6.73991 175.773L6.61766 175.555C7.19897 175.23 7.59745 174.871 7.90523 174.437C8.21573 173.999 8.44192 173.474 8.66395 172.801L8.90134 172.88ZM5.24941 173.28L5.1769 173.041C5.49228 172.945 5.70674 172.819 5.86799 172.661C6.03056 172.501 6.15377 172.294 6.26501 172.014C6.37743 171.73 6.47197 171.387 6.58598 170.958C6.69892 170.533 6.82889 170.034 7.01048 169.456L7.24898 169.531L7.48748 169.606C7.30987 170.171 7.18283 170.659 7.06918 171.087C6.95658 171.51 6.85494 171.882 6.72981 172.198C6.6035 172.517 6.44778 172.792 6.21828 173.018C5.98746 173.244 5.6967 173.406 5.32192 173.519L5.24941 173.28ZM7.24898 169.531L7.01048 169.456C7.06332 169.288 7.12056 169.113 7.18308 168.931L7.41949 169.012L7.6559 169.094C7.59493 169.271 7.53909 169.442 7.48748 169.606L7.24898 169.531ZM10.6172 162.494L10.3826 162.58L7.25576 154.09L7.49036 154.003L7.72495 153.917L10.8518 162.408L10.6172 162.494ZM7.49036 154.003L7.24691 154.06L6.85371 152.377L7.09716 152.32L7.34061 152.263L7.7338 153.946L7.49036 154.003ZM7.41949 161.493L7.18213 161.572L4.58054 153.702L4.81791 153.624L5.05527 153.545L7.65686 161.415L7.41949 161.493ZM7.41949 161.493L7.66949 161.493C7.66949 162.994 6.74946 163.835 5.75372 163.84C5.26568 163.843 4.78054 163.64 4.42005 163.238C4.05923 162.835 3.8353 162.246 3.8353 161.493L4.0853 161.493L4.3353 161.493C4.3353 162.147 4.52815 162.609 4.79249 162.904C5.05716 163.2 5.40557 163.342 5.75108 163.34C6.42243 163.337 7.16949 162.771 7.16949 161.493L7.41949 161.493ZM4.0853 161.493L4.33245 161.531C4.21018 162.334 4.22545 163.772 4.66272 164.946C4.88041 165.53 5.19564 166.03 5.63134 166.36C6.06066 166.685 6.62772 166.861 7.38809 166.764L7.41949 167.012L7.45089 167.26C6.57293 167.372 5.87232 167.169 5.32963 166.759C4.79331 166.353 4.43218 165.76 4.19417 165.121C3.72005 163.848 3.70655 162.319 3.83815 161.455L4.0853 161.493ZM7.41949 169.012L7.19179 168.909C7.38057 168.493 7.9013 167.457 8.28446 166.68L8.5087 166.79L8.73294 166.901C8.34438 167.689 7.83152 168.709 7.64719 169.116L7.41949 169.012ZM8.5087 166.79L8.28446 166.68C8.4536 166.336 8.59552 166.045 8.67364 165.872L8.90134 165.975L9.12904 166.079C9.047 166.26 8.90142 166.559 8.73294 166.901L8.5087 166.79ZM7.41949 167.012L7.36952 166.767L8.45873 166.545L8.5087 166.79L8.55868 167.035L7.46947 167.257L7.41949 167.012ZM7.11869 144.769L6.92116 144.923L5.39574 142.957L5.59326 142.803L5.79079 142.65L7.31621 144.616L7.11869 144.769ZM5.60116 147.169L5.38987 147.035L6.90739 144.636L7.11869 144.769L7.32998 144.903L5.81245 147.303L5.60116 147.169ZM9.75841 144.643L9.53699 144.527L11.1299 141.488L11.3513 141.604L11.5727 141.72L9.97983 144.759L9.75841 144.643ZM12.4938 149.306L12.2782 149.433L9.54277 144.769L9.75841 144.643L9.97404 144.516L12.7095 149.18L12.4938 149.306ZM9.75841 144.643L9.54297 144.77L8.30894 142.674L8.52438 142.547L8.73982 142.42L9.97385 144.516L9.75841 144.643ZM7.69167 150.037L7.9177 149.931C8.15946 150.442 8.55007 151.121 9.06445 151.564L8.90134 151.754L8.73823 151.943C8.14273 151.43 7.71588 150.674 7.46564 150.144L7.69167 150.037ZM10.759 151.588L10.5385 151.706L8.96594 148.76L9.18648 148.643L9.40702 148.525L10.9795 151.47L10.759 151.588ZM8.90134 151.754L8.65787 151.81C8.54861 151.342 8.43111 150.617 8.43684 149.965C8.4397 149.639 8.47313 149.316 8.56293 149.046C8.65195 148.779 8.81126 148.524 9.09348 148.411L9.18648 148.643L9.27949 148.875C9.19209 148.91 9.10432 149.003 9.03729 149.204C8.97105 149.403 8.93947 149.668 8.93682 149.969C8.93155 150.569 9.04111 151.252 9.14481 151.697L8.90134 151.754ZM7.96926 135.769L8.16481 135.613C8.20842 135.668 8.25642 135.728 8.30817 135.792L8.11375 135.949L7.91933 136.106C7.867 136.041 7.81823 135.981 7.77372 135.925L7.96926 135.769ZM2.94025 132.51L3.19025 132.51C3.19025 133.839 4.01926 134.961 5.16121 135.362L5.07851 135.598L4.99582 135.834C3.65106 135.362 2.69025 134.049 2.69025 132.51L2.94025 132.51ZM5.07851 135.598L5.16121 135.362C5.4523 135.464 5.76427 135.519 6.08915 135.519L6.08915 135.769L6.08915 136.019C5.70701 136.019 5.33917 135.954 4.99581 135.834L5.07851 135.598ZM7.96926 135.769L7.77372 135.925C7.72895 135.869 7.63054 135.824 7.30799 135.856C7.15797 135.871 6.9871 135.899 6.78353 135.931C6.5832 135.962 6.3578 135.995 6.11244 136.018L6.08915 135.769L6.06586 135.52C6.29538 135.499 6.50837 135.467 6.70701 135.436C6.90242 135.406 7.09112 135.375 7.25834 135.359C7.57027 135.328 7.93704 135.327 8.16481 135.613L7.96926 135.769ZM6.54009 130.025L6.75663 129.9C6.89644 130.142 7.3415 130.905 7.85877 131.707L7.64866 131.843L7.43855 131.978C6.91485 131.166 6.46514 130.395 6.32356 130.149L6.54009 130.025ZM7.64866 131.843L7.85877 131.707C8.18658 132.216 8.54056 132.735 8.86251 133.147L8.66552 133.301L8.46853 133.455C8.13296 133.026 7.76956 132.491 7.43855 131.978L7.64866 131.843ZM8.57113 128.792L8.33919 128.885C8.18785 128.509 7.9191 128.334 7.64298 128.292L7.68055 128.045L7.71812 127.798C8.17081 127.867 8.58635 128.16 8.80307 128.699L8.57113 128.792ZM7.68055 128.045L7.64298 128.292C7.3502 128.248 7.03304 128.35 6.81397 128.563C6.602 128.769 6.47656 129.084 6.56974 129.49L6.32608 129.546L6.08241 129.602C5.94972 129.024 6.12963 128.531 6.46541 128.205C6.79409 127.885 7.2671 127.73 7.71812 127.798L7.68055 128.045ZM6.37541 125.736L6.37541 125.486C6.92304 125.486 7.43023 125.665 7.84444 125.968L7.69673 126.17L7.54901 126.372C7.21658 126.128 6.81203 125.986 6.37541 125.986L6.37541 125.736ZM7.69673 126.17L7.84444 125.968C8.89504 126.738 8.91552 127.967 8.91552 129.027L8.66552 129.027L8.41552 129.027C8.41552 127.927 8.36789 126.972 7.54901 126.372L7.69673 126.17ZM1.00794 172.42L0.757939 172.42C0.757939 171.256 1.16002 170.328 1.85215 169.741C2.54421 169.155 3.49395 168.937 4.53341 169.129L4.48789 169.375L4.44236 169.621C3.5242 169.451 2.73396 169.649 2.17546 170.123C1.61702 170.596 1.25794 171.372 1.25794 172.42L1.00794 172.42ZM11.3513 141.604L11.1299 141.488C11.7615 140.283 11.57 138.871 10.9649 137.437C10.3612 136.007 9.36552 134.603 8.46853 133.455L8.66552 133.301L8.86251 133.147C9.76544 134.303 10.7952 135.749 11.4256 137.243C12.0547 138.734 12.3062 140.321 11.5727 141.72L11.3513 141.604ZM5.0561 173.32L5.03171 173.072C5.07628 173.067 5.12431 173.057 5.17689 173.041L5.24941 173.28L5.32193 173.519C5.24826 173.541 5.16689 173.561 5.0805 173.569L5.0561 173.32ZM11.8838 176.879L11.7128 176.696C13.3794 175.135 13.9586 172.675 13.1683 170.491L13.4033 170.406L13.6384 170.321C14.4955 172.689 13.8699 175.361 12.0547 177.061L11.8838 176.879ZM8.11375 135.949L8.30817 135.792C9.89457 137.754 10.0923 140.535 8.73567 142.68L8.52438 142.547L8.31309 142.413C9.5523 140.454 9.37444 137.906 7.91933 136.106L8.11375 135.949ZM7.57751 140.933L7.3619 141.06C6.6436 139.836 6.55995 138.324 7.13787 137.024L7.36632 137.126L7.59477 137.227C7.08208 138.38 7.15672 139.723 7.79312 140.807L7.57751 140.933ZM5.84307 178.896L5.74141 178.667C5.81374 178.635 5.8983 178.634 5.97338 178.671C6.04173 178.704 6.08359 178.759 6.10551 178.809C6.14722 178.904 6.14403 179.058 6.01359 179.152L5.86703 178.949L5.72047 178.747C5.61736 178.821 5.6175 178.942 5.64806 179.011C5.66441 179.048 5.69706 179.092 5.75378 179.12C5.81722 179.151 5.88771 179.149 5.94472 179.124L5.84307 178.896ZM6.44678 129.865L6.6663 129.745C6.69536 129.799 6.71738 129.832 6.75663 129.9L6.54009 130.025L6.32356 130.149C6.30097 130.11 6.25744 130.04 6.22726 129.985L6.44678 129.865ZM5.59326 142.803L5.39574 142.957C3.73584 140.817 3.52384 137.842 4.86083 135.475L5.07851 135.598L5.2962 135.721C4.05767 137.914 4.25515 140.671 5.79079 142.65L5.59326 142.803ZM9.18648 148.643L8.96594 148.76L6.89815 144.887L7.11869 144.769L7.33922 144.652L9.40702 148.525L9.18648 148.643ZM8.52438 142.547L8.30877 142.673L7.3619 141.06L7.57751 140.933L7.79312 140.807L8.73999 142.42L8.52438 142.547ZM7.36632 137.126L7.13787 137.024L7.74082 135.668L7.96926 135.769L8.19771 135.871L7.59477 137.227L7.36632 137.126ZM16.414 189.151L16.414 189.401C14.9781 189.401 13.7256 188.764 12.8528 187.853C11.9829 186.945 11.4733 185.746 11.5512 184.604L11.8006 184.621L12.05 184.638C11.9835 185.613 12.4209 186.679 13.2139 187.507C14.004 188.332 15.1304 188.901 16.414 188.901L16.414 189.151ZM11.8006 184.621L11.551 184.607C11.5624 184.407 11.5734 184.014 11.5411 183.631C11.525 183.439 11.4985 183.257 11.4587 183.107C11.4171 182.949 11.3685 182.856 11.3279 182.813L11.5093 182.641L11.6907 182.469C11.8187 182.604 11.8938 182.796 11.9421 182.979C11.9922 183.168 12.0219 183.382 12.0393 183.589C12.0743 184.004 12.0623 184.422 12.0502 184.635L11.8006 184.621ZM9.60084 183.975L9.73607 183.764C9.91782 183.881 10.2348 183.937 10.533 183.801C10.8181 183.671 11.1326 183.341 11.2631 182.598L11.5093 182.641L11.7555 182.685C11.605 183.542 11.2148 184.039 10.7408 184.256C10.2797 184.466 9.78296 184.389 9.46561 184.185L9.60084 183.975ZM16.414 178.896L16.6579 178.951C16.2684 180.682 15.8735 181.946 15.3456 182.828C14.808 183.727 14.1294 184.234 13.1966 184.441L13.1424 184.197L13.0883 183.953C13.8744 183.778 14.4426 183.364 14.9166 182.572C15.4003 181.763 15.7817 180.567 16.1701 178.841L16.414 178.896ZM14.7619 187.154L14.5997 187.344C13.8991 186.747 12.9991 185.702 12.8931 184.215L13.1424 184.197L13.3918 184.179C13.4841 185.475 14.2707 186.406 14.9242 186.964L14.7619 187.154ZM16.414 183.16L16.631 183.284C16.4566 183.589 16.2473 183.903 16.0428 184.215C15.8362 184.53 15.6323 184.846 15.4579 185.169C15.1078 185.817 14.8952 186.458 15.0083 187.111L14.7619 187.154L14.5156 187.197C14.3741 186.379 14.6482 185.616 15.018 184.931C15.2036 184.588 15.4181 184.256 15.6247 183.941C15.8333 183.622 16.0321 183.324 16.197 183.036L16.414 183.16ZM9.60084 183.975L9.7435 184.18C8.85887 184.795 8.38515 185.413 8.2326 186.043C8.08105 186.668 8.2334 187.359 8.72155 188.152L8.5087 188.283L8.29586 188.414C7.76566 187.553 7.55306 186.724 7.74666 185.925C7.93926 185.13 8.52079 184.421 9.45819 183.769L9.60084 183.975ZM8.5087 182.705L8.30115 182.844C7.86982 182.202 7.72549 181.685 7.54248 180.764L7.78768 180.716L8.03288 180.667C8.21201 181.568 8.34084 182.006 8.71626 182.565L8.5087 182.705ZM5.84307 186.213L5.59543 186.247C5.54424 185.877 5.55212 185.133 5.92681 184.376C6.30692 183.61 7.05436 182.853 8.44125 182.464L8.5087 182.705L8.57615 182.946C7.32137 183.297 6.69006 183.962 6.37481 184.599C6.05414 185.246 6.05004 185.885 6.0907 186.178L5.84307 186.213ZM12.3348 189.456L12.2437 189.689C12.2591 189.695 12.2711 189.698 12.2745 189.698C12.2792 189.699 12.2822 189.7 12.2823 189.7C12.2824 189.7 12.2795 189.699 12.2716 189.699C12.2553 189.697 12.2344 189.695 12.2019 189.692C12.1403 189.686 12.0541 189.677 11.9522 189.661C11.7494 189.63 11.4796 189.57 11.2043 189.449C10.6425 189.201 10.0632 188.692 9.98278 187.687L10.232 187.667L10.4812 187.647C10.5439 188.431 10.9736 188.8 11.4062 188.991C11.6282 189.089 11.852 189.14 12.029 189.167C12.117 189.181 12.1923 189.189 12.25 189.194C12.2772 189.197 12.3054 189.199 12.3259 189.202C12.3364 189.203 12.3489 189.204 12.3611 189.206C12.3674 189.207 12.3956 189.211 12.4258 189.223L12.3348 189.456ZM8.90134 165.975L8.7357 165.788C9.11533 165.452 9.7673 165.002 10.5048 164.734C11.2394 164.466 12.1044 164.364 12.8641 164.8L12.7397 165.017L12.6152 165.233C12.0385 164.902 11.3457 164.96 10.6759 165.204C10.0089 165.446 9.40996 165.859 9.06698 166.163L8.90134 165.975ZM9.90154 163.956L9.67838 163.843C9.95684 163.292 10.22 162.765 10.3895 162.391L10.6172 162.494L10.8449 162.597C10.6703 162.983 10.4022 163.519 10.1247 164.068L9.90154 163.956ZM9.90154 163.956L9.80174 163.726C10.1897 163.557 10.7909 163.253 11.4357 163.074C12.084 162.893 12.8278 162.823 13.5132 163.158L13.4033 163.383L13.2935 163.607C12.7671 163.35 12.1662 163.389 11.5696 163.555C10.9695 163.722 10.4256 164 10.0013 164.185L9.90154 163.956ZM9.47214 171.234L9.22769 171.287L8.94203 169.954L9.18648 169.901L9.43093 169.849L9.7166 171.182L9.47214 171.234ZM10.6172 162.494L10.3895 162.391C11.2074 160.586 11.6978 158.71 11.7407 156.859L11.9906 156.865L12.2406 156.87C12.1958 158.802 11.6849 160.744 10.8449 162.597L10.6172 162.494ZM13.4033 163.383L13.1754 163.28C14.4425 160.471 14.8802 157.209 14.3787 154.39L14.6249 154.346L14.871 154.302C15.3914 157.228 14.9367 160.591 13.6312 163.486L13.4033 163.383ZM14.6249 154.346L14.5296 154.115C15.2638 153.812 15.7134 153.614 16.1561 153.552C16.6133 153.489 17.0506 153.572 17.7663 153.762L17.7022 154.003L17.6381 154.245C16.9225 154.055 16.5726 153.999 16.2247 154.048C15.8622 154.098 15.4888 154.26 14.7202 154.577L14.6249 154.346ZM14.6249 154.346C14.6249 154.596 14.6256 154.596 14.6264 154.596C14.6266 154.596 14.6274 154.596 14.6279 154.596C14.6289 154.596 14.6299 154.596 14.6309 154.596C14.6328 154.596 14.6348 154.596 14.6367 154.596C14.6405 154.596 14.6442 154.595 14.6478 154.595C14.6549 154.594 14.6616 154.594 14.6676 154.592C14.6797 154.59 14.6896 154.587 14.697 154.585C14.7115 154.58 14.7176 154.575 14.7142 154.577C14.7063 154.582 14.6713 154.607 14.6038 154.681C14.4687 154.829 14.2284 155.146 13.8382 155.807L13.623 155.679L13.4077 155.552C13.8048 154.88 14.0654 154.53 14.2345 154.344C14.319 154.252 14.3869 154.193 14.4439 154.157C14.4729 154.138 14.5019 154.123 14.5312 154.113C14.546 154.108 14.5613 154.104 14.5769 154.101C14.5848 154.099 14.5927 154.098 14.6007 154.097C14.6047 154.097 14.6087 154.097 14.6128 154.096C14.6148 154.096 14.6168 154.096 14.6188 154.096C14.6198 154.096 14.6208 154.096 14.6218 154.096C14.6224 154.096 14.6231 154.096 14.6234 154.096C14.6241 154.096 14.6249 154.096 14.6249 154.346ZM11.9906 156.865L11.7407 156.859C11.757 156.154 11.7085 155.452 11.5885 154.759L11.8348 154.717L12.0812 154.674C12.207 155.401 12.2576 156.135 12.2406 156.87L11.9906 156.865ZM11.3513 152.909L11.1166 152.995C10.9568 152.56 10.7647 152.13 10.5385 151.706L10.759 151.588L10.9795 151.47C11.2167 151.915 11.4182 152.366 11.586 152.823L11.3513 152.909ZM13.4033 151.072L13.175 151.173C12.9137 150.587 12.6146 150.006 12.2782 149.433L12.4938 149.306L12.7095 149.18C13.055 149.768 13.3626 150.366 13.6317 150.97L13.4033 151.072ZM11.3513 152.909L11.1315 152.79C11.2942 152.489 11.5942 152.037 11.974 151.643C12.3471 151.257 12.8344 150.887 13.3742 150.823L13.4033 151.072L13.4325 151.32C13.069 151.363 12.6842 151.627 12.334 151.991C11.9905 152.347 11.7161 152.76 11.5712 153.028L11.3513 152.909ZM17.7022 154.003L17.4798 154.117C17.2648 153.698 16.8231 153.34 16.2499 153.09C15.6802 152.841 15.0062 152.712 14.3659 152.731C13.7232 152.75 13.1381 152.918 12.7253 153.238C12.3229 153.551 12.0641 154.022 12.0847 154.709L11.8348 154.717L11.585 154.724C11.5597 153.883 11.8861 153.257 12.4188 152.843C12.941 152.438 13.6405 152.252 14.3509 152.231C15.0637 152.21 15.8111 152.353 16.4498 152.632C17.085 152.909 17.6387 153.332 17.9247 153.889L17.7022 154.003ZM7.20722 148.706L6.973 148.793C6.83979 148.436 6.64965 148.028 6.40932 147.74C6.16868 147.451 5.92864 147.337 5.66871 147.41L5.60116 147.169L5.53361 146.928C6.07193 146.777 6.49861 147.066 6.79329 147.419C7.08828 147.773 7.30205 148.245 7.44144 148.618L7.20722 148.706ZM7.09716 152.32L6.85627 152.387C6.77885 152.108 6.72733 151.888 6.73674 151.693C6.74723 151.477 6.83052 151.316 6.95368 151.149L7.15466 151.298L7.35564 151.447C7.2641 151.57 7.24005 151.637 7.23616 151.718C7.23119 151.82 7.25827 151.966 7.33805 152.253L7.09716 152.32ZM4.81791 153.624L4.58054 153.702C4.26784 152.756 4.11762 151.94 4.15602 151.129C4.19446 150.317 4.42104 149.529 4.83711 148.637L5.06368 148.742L5.29024 148.848C4.89306 149.699 4.68998 150.424 4.65546 151.153C4.62089 151.883 4.75441 152.635 5.05527 153.545L4.81791 153.624ZM7.15466 151.298L6.94327 151.432C6.81858 151.234 6.65569 150.905 6.48273 150.559C6.3058 150.206 6.11237 149.824 5.91836 149.497C5.71806 149.159 5.53923 148.919 5.40066 148.818C5.33361 148.769 5.31883 148.784 5.33793 148.78C5.35995 148.775 5.33422 148.766 5.28459 148.859L5.06368 148.742L4.84276 148.625C4.92553 148.469 5.04991 148.329 5.23507 148.29C5.41731 148.252 5.57871 148.329 5.69619 148.415C5.92667 148.584 6.1503 148.907 6.34843 149.242C6.55284 149.586 6.7538 149.984 6.92977 150.335C7.10972 150.695 7.25825 150.994 7.36605 151.165L7.15466 151.298ZM9.54548 193.001L9.29779 193.035C9.19883 192.313 9.2246 191.436 9.65171 190.693C10.0874 189.935 10.9123 189.363 12.307 189.208L12.3348 189.456L12.3625 189.704C11.0904 189.846 10.4252 190.351 10.0852 190.942C9.73669 191.549 9.70125 192.296 9.79316 192.967L9.54548 193.001ZM11.5138 196.464L11.3346 196.29C11.9918 195.615 12.117 194.712 11.8736 193.795L12.1152 193.731L12.3568 193.667C12.6321 194.704 12.5049 195.804 11.693 196.639L11.5138 196.464ZM7.34111 192.815L7.09735 192.759L7.54391 190.797L7.78768 190.852L8.03145 190.908L7.58488 192.87L7.34111 192.815ZM7.23004 194.498L6.98303 194.537C6.88858 193.932 6.96862 193.325 7.09735 192.759L7.34111 192.815L7.58488 192.87C7.46227 193.409 7.39667 193.945 7.47705 194.46L7.23004 194.498ZM7.69167 150.037L7.46564 150.144C7.35835 149.917 7.27485 149.684 7.19883 149.457C7.12136 149.226 7.05375 149.01 6.973 148.793L7.20722 148.706L7.44144 148.618C7.52605 148.845 7.59984 149.081 7.67284 149.298C7.7473 149.52 7.82334 149.731 7.9177 149.931L7.69167 150.037ZM10.7138 196.906L10.6558 196.663C10.9159 196.601 11.154 196.476 11.3346 196.29L11.5138 196.464L11.693 196.639C11.4373 196.901 11.1107 197.068 10.7717 197.149L10.7138 196.906ZM9.75602 193.622L9.54771 193.761C9.39696 193.533 9.33041 193.273 9.29779 193.035L9.54548 193.001L9.79316 192.967C9.82078 193.168 9.87221 193.345 9.96433 193.484L9.75602 193.622ZM11.7273 192.963L11.9301 192.817C12.108 193.063 12.2714 193.345 12.3568 193.667L12.1152 193.731L11.8736 193.795C11.8098 193.555 11.6835 193.33 11.5246 193.109L11.7273 192.963ZM11.7273 5.03713L11.9301 5.18333L11.6521 5.5689L11.4494 5.4227L11.2466 5.27649L11.5246 4.89092L11.7273 5.03713ZM8.5087 9.71706L8.268 9.78462L7.54698 7.21547L7.78768 7.14791L8.02838 7.08036L8.7494 9.64951L8.5087 9.71706ZM7.78768 7.14791L7.94274 7.34402C7.67487 7.55582 7.42217 7.69186 7.11759 7.74309C6.82101 7.79297 6.49896 7.75806 6.10207 7.67591L6.15274 7.4311L6.20341 7.18628C6.58377 7.26501 6.83179 7.28413 7.03466 7.25001C7.22954 7.21724 7.40567 7.13125 7.63262 6.95181L7.78768 7.14791ZM4.96797 4.50416L5.17076 4.65037L5.05077 4.81679L4.84798 4.67058L4.6452 4.52437L4.76518 4.35795L4.96797 4.50416ZM5.48843 9.23178L5.64124 9.03392L5.87067 9.21112L5.71785 9.40898L5.56504 9.60683L5.33561 9.42964L5.48843 9.23178ZM11.4494 5.4227L11.2064 5.36361L11.2664 5.11712L11.5093 5.1762L11.7522 5.23528L11.6923 5.48178L11.4494 5.4227ZM11.5093 5.1762L11.2664 5.11711C11.4071 4.53862 11.1719 4.22536 10.9155 4.12249C10.6449 4.01395 10.2452 4.09258 9.96433 4.51582L9.75602 4.3776L9.54771 4.23937C9.94173 3.64558 10.5824 3.45012 11.1017 3.65844C11.6351 3.87243 11.9391 4.46698 11.7522 5.23528L11.5093 5.1762ZM4.84798 4.67058L5.05077 4.81679C4.08827 6.15177 4.35592 8.0412 5.64124 9.03392L5.48843 9.23178L5.33561 9.42964C3.83336 8.26937 3.52753 6.07457 4.6452 4.52437L4.84798 4.67058ZM6.15274 7.4311L6.08904 7.67284C5.44109 7.50212 4.92565 6.9338 4.66241 6.30931C4.39944 5.68545 4.35601 4.92546 4.76518 4.35795L4.96797 4.50416L5.17076 4.65037C4.90056 5.02513 4.89911 5.58358 5.12315 6.1151C5.34694 6.646 5.76356 7.07002 6.21643 7.18935L6.15274 7.4311ZM7.78768 2.0998L7.99047 2.246C7.68745 2.66628 7.54943 3.0764 7.47705 3.54014L7.23004 3.50158L6.98303 3.46303C7.0648 2.93914 7.22649 2.45069 7.58489 1.95359L7.78768 2.0998ZM4.0853 69.6713L4.3353 69.6713L4.3353 69.8937L4.0853 69.8937L3.8353 69.8937L3.8353 69.6713L4.0853 69.6713ZM6.37541 64.6988L6.58532 64.8345L5.06513 67.1846L4.85522 67.0488L4.64531 66.913L6.1655 64.563L6.37541 64.6988ZM6.37541 64.6988L6.27711 64.9286L5.04567 64.402L5.14397 64.1722L5.24226 63.9423L6.4737 64.4689L6.37541 64.6988ZM2.94025 65.6977L2.69025 65.6977L2.69025 65.49L2.94025 65.49L3.19025 65.49L3.19025 65.6977L2.94025 65.6977ZM8.66551 68.9735L8.89745 69.0668L8.80307 69.3014L8.57112 69.2081L8.33918 69.1148L8.43357 68.8802L8.66551 68.9735ZM4.0853 69.8937L4.3353 69.8937C4.3353 71.0729 5.25673 72.014 6.37541 72.014L6.37541 72.264L6.37541 72.514C4.9645 72.514 3.8353 71.3327 3.8353 69.8937L4.0853 69.8937ZM5.14397 64.1722L5.04567 64.402C4.17299 64.0288 3.19025 64.6878 3.19025 65.6977L2.94025 65.6977L2.69025 65.6977C2.69025 64.3561 4.01523 63.4176 5.24226 63.9423L5.14397 64.1722ZM4.0853 69.6713L3.8353 69.6713C3.8353 68.6899 4.1169 67.7299 4.64531 66.913L4.85522 67.0488L5.06513 67.1846C4.58964 67.9196 4.3353 68.7852 4.3353 69.6713L4.0853 69.6713ZM6.32607 68.454L6.0824 68.3981C6.11313 68.2642 6.1619 68.1354 6.22726 68.0155L6.44677 68.1351L6.66629 68.2547C6.62288 68.3344 6.59031 68.4203 6.56974 68.5099L6.32607 68.454ZM1.31364 21.8028L1.0812 21.7107L1.47389 20.7188L1.70634 20.8108L1.93879 20.9028L1.54609 21.8948L1.31364 21.8028ZM4.48789 28.6251L4.38018 28.8508C3.25637 28.3143 2.73894 27.6 2.6784 26.8471C2.61933 26.1122 3.00388 25.4237 3.50117 24.9409L3.67531 25.1202L3.84946 25.2996C3.41639 25.7201 3.13374 26.2715 3.1768 26.807C3.2184 27.3245 3.57243 27.9111 4.59559 28.3995L4.48789 28.6251ZM1.70634 20.8108L1.47547 20.7149C2.21417 18.937 4.21345 18.1053 5.94472 18.8759L5.84306 19.1043L5.74141 19.3327C4.27741 18.6811 2.57255 19.3776 1.93721 20.9067L1.70634 20.8108ZM6.73991 22.2265L6.61766 22.4446C5.76312 21.9656 4.6069 21.457 3.59144 21.2711C3.08283 21.178 2.63154 21.1701 2.2777 21.2698C1.93504 21.3663 1.68433 21.5621 1.54451 21.8987L1.31364 21.8028L1.08278 21.7068C1.28922 21.2099 1.67326 20.9206 2.14211 20.7885C2.59977 20.6596 3.13676 20.6796 3.68148 20.7793C4.77267 20.9791 5.98332 21.5158 6.86215 22.0085L6.73991 22.2265ZM6.73991 22.2265L6.6392 22.4554C5.54017 21.9717 4.18427 21.9939 3.10968 22.5201C2.04741 23.0402 1.25794 24.0518 1.25794 25.5804L1.00794 25.5804L0.757936 25.5804C0.757936 23.8471 1.66888 22.6688 2.8898 22.071C4.09841 21.4792 5.60849 21.4555 6.84061 21.9977L6.73991 22.2265ZM1.70634 9.71706L1.90211 9.87255C1.41758 10.4826 1.00331 11.6711 1.4239 13.2318C1.84459 14.7927 3.10723 16.745 6.01358 18.8481L5.86703 19.0506L5.72047 19.2532C2.75481 17.1072 1.40089 15.0678 0.941125 13.3619C0.481267 11.6555 0.922662 10.3018 1.51058 9.56158L1.70634 9.71706ZM1.70634 9.71706L1.95605 9.7291C1.9435 9.98952 2.02565 10.3717 2.24338 10.8647C2.45909 11.3532 2.79983 11.9325 3.28171 12.5809C4.24523 13.8776 5.76282 15.4373 7.93861 17.0851L7.78768 17.2844L7.63675 17.4837C5.43086 15.8131 3.87733 14.2208 2.88038 12.8792C2.38203 12.2085 2.02019 11.5971 1.786 11.0667C1.55383 10.541 1.43874 10.0762 1.45663 9.70503L1.70634 9.71706ZM12.3348 8.54402L12.3348 8.29402C13.9102 8.29402 14.7684 8.27521 16.4616 8.60324L16.414 8.84867L16.3665 9.09411C14.7245 8.776 13.9083 8.79402 12.3348 8.79402L12.3348 8.54402ZM3.67531 25.1202L3.50117 24.9409C4.07201 24.3866 4.8173 24.4051 5.08049 24.4309L5.0561 24.6797L5.03171 24.9285C4.8089 24.9067 4.25693 24.904 3.84946 25.2996L3.67531 25.1202ZM7.78768 17.2844L7.95859 17.1019L12.0547 20.9389L11.8838 21.1214L11.7128 21.3038L7.61677 17.4669L7.78768 17.2844ZM11.9664 31.5636L12.186 31.444L12.9592 32.8638L12.7397 32.9834L12.5201 33.103L11.7469 31.6831L11.9664 31.5636ZM8.90134 25.1202L9.13753 25.0383L9.70833 26.6836L9.47214 26.7656L9.23595 26.8475L8.66515 25.2022L8.90134 25.1202ZM20.9227 11.7874L21.0804 11.5934C22.0698 12.398 22.7962 13.2471 23.3077 14.4193C23.8162 15.5847 24.1054 17.0536 24.2494 19.0866L24 19.1043L23.7506 19.1219C23.6083 17.113 23.325 15.7091 22.8495 14.6193C22.3769 13.5364 21.7078 12.748 20.7649 11.9813L20.9227 11.7874ZM24 19.1043L24.25 19.1043C24.25 20.9581 23.8699 22.2542 23.2317 23.0557C22.5817 23.8718 21.6873 24.1453 20.7568 23.9921C19.8393 23.841 18.8944 23.2789 18.0842 22.4444C17.2715 21.6074 16.5804 20.4827 16.1753 19.1784L16.414 19.1043L16.6528 19.0301C17.0349 20.2602 17.6856 21.3161 18.4429 22.0961C19.2027 22.8787 20.0559 23.3699 20.838 23.4987C21.6073 23.6254 22.3141 23.4052 22.8405 22.7442C23.3786 22.0686 23.75 20.9042 23.75 19.1043L24 19.1043ZM19.5629 19.951L19.3551 20.09C18.3611 18.6039 17.9912 16.8089 17.6677 15.6871C17.5856 15.4022 17.5084 15.1659 17.4272 14.9833C17.3435 14.7949 17.2691 14.6958 17.21 14.652C17.1724 14.6241 17.1352 14.6108 17.054 14.6425C16.9526 14.6819 16.8038 14.7875 16.5973 15.0101L16.414 14.84L16.2307 14.67C16.4537 14.4297 16.6649 14.2575 16.8724 14.1766C17.1001 14.0878 17.3207 14.1116 17.5078 14.2504C17.6735 14.3732 17.7909 14.5704 17.8841 14.7802C17.9799 14.9957 18.0648 15.2593 18.1482 15.5485C18.4867 16.7229 18.8325 18.4093 19.7707 19.812L19.5629 19.951ZM7.78768 2.0998L7.59651 1.93869C8.01542 1.44162 8.48978 1.0899 9.0267 0.903447C9.56448 0.716694 10.1472 0.701975 10.7717 0.850749L10.7138 1.09394L10.6558 1.33714C10.1092 1.20692 9.62506 1.22495 9.19072 1.37578C8.75551 1.52691 8.35243 1.81761 7.97885 2.2609L7.78768 2.0998ZM20.9227 11.7874L21.1584 11.7041C22.0032 14.0945 22.2774 16.313 22.2016 18.024C22.1637 18.8788 22.0382 19.6141 21.8481 20.1838C21.6621 20.7413 21.399 21.1863 21.0517 21.3956L20.9227 21.1815L20.7936 20.9674C20.9838 20.8528 21.1982 20.552 21.3738 20.0255C21.5454 19.5112 21.6657 18.8241 21.7021 18.0018C21.7749 16.3586 21.5116 14.2041 20.687 11.8707L20.9227 11.7874ZM19.5629 19.951L19.7607 19.7981C20.2312 20.4068 20.6382 20.8088 21.0099 20.9472L20.9227 21.1815L20.8354 21.4158C20.3158 21.2223 19.8328 20.7089 19.3651 20.1039L19.5629 19.951ZM20.9227 21.1815L21.0099 20.9472C21.2508 21.037 21.4853 21.019 21.7506 20.8292C22.0332 20.6271 22.3514 20.2278 22.7041 19.5405L22.9265 19.6547L23.1489 19.7689C22.7834 20.481 22.4208 20.9646 22.0415 21.2359C21.6451 21.5195 21.2367 21.5653 20.8354 21.4158L20.9227 21.1815ZM13.4033 27.5937L13.6384 27.6787L12.2015 31.6487L11.9664 31.5636L11.7314 31.4785L13.1683 27.5086L13.4033 27.5937ZM9.47214 26.7656L9.23166 26.6972C9.41497 26.0521 9.65318 25.5804 10.1166 25.3168C10.5646 25.062 11.1698 25.035 11.989 25.1092L11.9664 25.3582L11.9439 25.6072C11.1276 25.5332 10.6645 25.5803 10.3638 25.7514C10.0783 25.9138 9.88714 26.2197 9.71262 26.8339L9.47214 26.7656ZM11.0278 29.5803L11.2538 29.4735L11.2668 29.5011L11.0408 29.6079L10.8148 29.7147L10.8017 29.6871L11.0278 29.5803ZM11.0408 29.6079L11.2668 29.5011C11.6152 30.2384 11.9635 30.9754 12.1922 31.4562L11.9664 31.5636L11.7407 31.671C11.5116 31.1894 11.163 30.4517 10.8148 29.7147L11.0408 29.6079ZM11.9664 25.3582L12.1568 25.5202C11.7356 26.0151 10.9299 27.5468 11.2741 29.5377L11.0278 29.5803L10.7814 29.6228C10.4085 27.4657 11.2727 25.7876 11.7761 25.1962L11.9664 25.3582ZM8.90134 25.1202L8.66395 25.1986C8.44192 24.5262 8.21572 24.001 7.90522 23.5633C7.59745 23.1294 7.19897 22.7705 6.61766 22.4446L6.73991 22.2265L6.86215 22.0085C7.50026 22.3662 7.95747 22.7727 8.31305 23.274C8.6659 23.7715 8.91072 24.3514 9.13873 25.0418L8.90134 25.1202ZM5.24941 24.7201L5.32192 24.4808C5.69669 24.5944 5.98746 24.7559 6.21828 24.9825C6.44778 25.2078 6.60349 25.4834 6.72981 25.802C6.85494 26.1177 6.95658 26.4901 7.06917 26.9134C7.18283 27.3407 7.30987 27.829 7.48748 28.3942L7.24898 28.4692L7.01048 28.5441C6.82889 27.9662 6.69892 27.4666 6.58597 27.042C6.47197 26.6134 6.37743 26.2699 6.265 25.9863C6.15377 25.7057 6.03056 25.4989 5.86799 25.3393C5.70674 25.1809 5.49228 25.0549 5.1769 24.9594L5.24941 24.7201ZM7.24898 28.4692L7.48748 28.3942C7.53908 28.5585 7.59493 28.7291 7.6559 28.9064L7.41949 28.9877L7.18308 29.069C7.12056 28.8872 7.06332 28.7123 7.01048 28.5441L7.24898 28.4692ZM10.6172 35.506L10.8518 35.5924L7.72495 44.0832L7.49035 43.9968L7.25575 43.9104L10.3826 35.4196L10.6172 35.506ZM7.49035 43.9968L7.7338 44.0537L7.3406 45.7368L7.09716 45.6799L6.85371 45.6231L7.24691 43.9399L7.49035 43.9968ZM7.41949 36.507L7.65685 36.5854L5.05527 44.4548L4.8179 44.3763L4.58054 44.2979L7.18212 36.4285L7.41949 36.507ZM7.41949 36.507L7.16949 36.507C7.16949 35.2291 6.42242 34.6633 5.75108 34.6597C5.40556 34.6579 5.05716 34.8004 4.79249 35.0959C4.52815 35.391 4.3353 35.8534 4.3353 36.507L4.0853 36.507L3.8353 36.507C3.8353 35.7536 4.05923 35.1652 4.42004 34.7623C4.78054 34.3598 5.26568 34.1572 5.75371 34.1598C6.74946 34.165 7.66949 35.0061 7.66949 36.507L7.41949 36.507ZM4.0853 36.507L3.83815 36.5446C3.70655 35.6805 3.72005 34.1521 4.19417 32.8794C4.43218 32.2404 4.79331 31.6471 5.32963 31.2412C5.87232 30.8306 6.57293 30.6284 7.45089 30.7396L7.41949 30.9876L7.38809 31.2356C6.62772 31.1394 6.06066 31.3151 5.63133 31.64C5.19563 31.9697 4.88041 32.4695 4.66272 33.0539C4.22544 34.2278 4.21017 35.6665 4.33245 36.4693L4.0853 36.507ZM7.41949 28.9877L7.64719 28.8845C7.83152 29.2912 8.34438 30.311 8.73294 31.0993L8.5087 31.2098L8.28446 31.3204C7.90129 30.543 7.38056 29.5074 7.19179 29.0909L7.41949 28.9877ZM8.5087 31.2098L8.73294 31.0993C8.90142 31.4411 9.047 31.7404 9.12904 31.9214L8.90134 32.0246L8.67364 32.1278C8.59552 31.9555 8.4536 31.6635 8.28446 31.3204L8.5087 31.2098ZM7.41949 30.9876L7.46946 30.7427L8.55868 30.9649L8.5087 31.2098L8.45873 31.4548L7.36951 31.2326L7.41949 30.9876ZM7.11868 53.2305L7.3162 53.3838L5.79078 55.3499L5.59326 55.1967L5.39574 55.0434L6.92116 53.0773L7.11868 53.2305ZM5.60116 50.8309L5.81245 50.6973L7.32997 53.0969L7.11868 53.2305L6.90739 53.3642L5.38986 50.9646L5.60116 50.8309ZM9.7584 53.3571L9.97982 53.2411L11.5727 56.2797L11.3513 56.3958L11.1299 56.5118L9.53698 53.4732L9.7584 53.3571ZM12.4938 48.694L12.7095 48.8205L9.97404 53.4836L9.7584 53.3571L9.54277 53.2306L12.2782 48.5675L12.4938 48.694ZM9.7584 53.3571L9.97384 53.484L8.73982 55.5801L8.52438 55.4533L8.30894 55.3265L9.54296 53.2303L9.7584 53.3571ZM7.69166 47.9626L7.46563 47.8558C7.71587 47.3263 8.14273 46.5695 8.73823 46.0568L8.90134 46.2463L9.06445 46.4358C8.55006 46.8786 8.15946 47.5579 7.91769 48.0695L7.69166 47.9626ZM10.759 46.4118L10.9795 46.5295L9.40702 49.475L9.18648 49.3573L8.96594 49.2395L10.5384 46.294L10.759 46.4118ZM8.90134 46.2463L9.14481 46.3031C9.0411 46.7479 8.93155 47.4308 8.93682 48.0311C8.93946 48.3324 8.97105 48.5968 9.03729 48.7956C9.10431 48.9968 9.19208 49.0902 9.27948 49.1252L9.18648 49.3573L9.09347 49.5893C8.81125 49.4762 8.65195 49.2209 8.56293 48.9537C8.47312 48.6842 8.43969 48.3607 8.43684 48.0355C8.43111 47.3827 8.5486 46.6582 8.65787 46.1895L8.90134 46.2463ZM7.96926 62.2309L7.77372 62.0751C7.81823 62.0192 7.86699 61.9585 7.91933 61.8938L8.11375 62.051L8.30817 62.2081C8.25641 62.2721 8.20841 62.3319 8.1648 62.3866L7.96926 62.2309ZM2.94025 65.49L2.69025 65.49C2.69025 63.951 3.65106 62.6378 4.99581 62.1664L5.07851 62.4024L5.1612 62.6383C4.01926 63.0386 3.19025 64.1609 3.19025 65.49L2.94025 65.49ZM5.07851 62.4024L4.99581 62.1664C5.33916 62.0461 5.707 61.9809 6.08914 61.9809L6.08914 62.2309L6.08914 62.4809C5.76426 62.4809 5.4523 62.5363 5.1612 62.6383L5.07851 62.4024ZM7.96926 62.2309L8.1648 62.3866C7.93704 62.6726 7.57027 62.6724 7.25834 62.6413C7.09111 62.6246 6.90241 62.5938 6.707 62.5635C6.50836 62.5328 6.29537 62.5013 6.06585 62.4798L6.08914 62.2309L6.11244 61.982C6.35779 62.0049 6.58319 62.0384 6.78353 62.0694C6.98709 62.101 7.15797 62.1288 7.30798 62.1437C7.63054 62.1759 7.72894 62.1313 7.77372 62.0751L7.96926 62.2309ZM6.54009 67.9755L6.32355 67.8505C6.46514 67.6051 6.91485 66.8341 7.43854 66.0219L7.64866 66.1574L7.85877 66.2929C7.34149 67.0951 6.89643 67.8581 6.75662 68.1004L6.54009 67.9755ZM7.64866 66.1574L7.43854 66.0219C7.76955 65.5085 8.13295 64.9743 8.46852 64.5448L8.66551 64.6988L8.8625 64.8527C8.54056 65.2647 8.18658 65.7844 7.85877 66.2929L7.64866 66.1574ZM8.57112 69.2081L8.80307 69.3014C8.58634 69.8403 8.1708 70.1331 7.71812 70.2019L7.68054 69.9548L7.64297 69.7076C7.9191 69.6656 8.18784 69.4911 8.33918 69.1149L8.57112 69.2081ZM7.68054 69.9548L7.71812 70.2019C7.26709 70.2705 6.79408 70.1147 6.4654 69.7951C6.12962 69.4686 5.94971 68.9763 6.0824 68.3981L6.32607 68.454L6.56974 68.5099C6.47656 68.9159 6.60199 69.2305 6.81396 69.4366C7.03304 69.6496 7.3502 69.7521 7.64297 69.7076L7.68054 69.9548ZM6.37541 72.264L6.37541 72.014C6.81203 72.014 7.21658 71.8717 7.54901 71.6282L7.69672 71.8299L7.84444 72.0316C7.43022 72.335 6.92304 72.514 6.37541 72.514L6.37541 72.264ZM7.69672 71.8299L7.54901 71.6282C8.36788 71.0285 8.41551 70.0734 8.41551 68.9735L8.66551 68.9735L8.91551 68.9735C8.91551 70.0335 8.89504 71.2622 7.84444 72.0316L7.69672 71.8299ZM1.00794 25.5804L1.25794 25.5804C1.25794 26.6283 1.61701 27.4041 2.17545 27.8774C2.73396 28.3509 3.5242 28.5494 4.44236 28.3793L4.48789 28.6251L4.53341 28.871C3.49395 29.0635 2.54421 28.8455 1.85215 28.2588C1.16002 27.6722 0.757936 26.7443 0.757936 25.5804L1.00794 25.5804ZM11.3513 56.3958L11.5727 56.2797C12.3062 57.6788 12.0547 59.2664 11.4256 60.7571C10.7951 62.2511 9.76543 63.6972 8.8625 64.8527L8.66551 64.6988L8.46852 64.5448C9.36551 63.3969 10.3612 61.9934 10.9649 60.5627C11.57 59.1288 11.7615 57.7166 11.1299 56.5118L11.3513 56.3958ZM5.0561 24.6797L5.08049 24.4309C5.1669 24.4394 5.24826 24.4585 5.32192 24.4808L5.24941 24.7201L5.17689 24.9593C5.1243 24.9434 5.07627 24.9329 5.03171 24.9285L5.0561 24.6797ZM11.8838 21.1214L12.0547 20.9389C13.8699 22.6394 14.4955 25.3107 13.6384 27.6787L13.4033 27.5937L13.1683 27.5086C13.9586 25.325 13.3794 22.865 11.7128 21.3038L11.8838 21.1214ZM8.11375 62.051L7.91933 61.8938C9.37444 60.0938 9.55229 57.5464 8.31308 55.5869L8.52438 55.4533L8.73567 55.3197C10.0923 57.4648 9.89456 60.2457 8.30817 62.2081L8.11375 62.051ZM7.57751 57.0666L7.79311 57.1932C7.15672 58.2775 7.08207 59.6195 7.59476 60.7729L7.36631 60.8745L7.13787 60.976C6.55995 59.6759 6.64359 58.164 7.3619 56.9401L7.57751 57.0666ZM5.84306 19.1043L5.94472 18.8759C5.8877 18.8505 5.8172 18.8488 5.75376 18.8798C5.69704 18.9076 5.6644 18.952 5.64805 18.9891C5.61751 19.0583 5.61735 19.1785 5.72047 19.2532L5.86703 19.0506L6.01358 18.8481C6.14404 18.9425 6.14721 19.0964 6.10551 19.1909C6.08359 19.2406 6.04175 19.2956 5.9734 19.329C5.89832 19.3657 5.81375 19.3649 5.74141 19.3327L5.84306 19.1043ZM6.44677 68.1351L6.22726 68.0155C6.25744 67.9601 6.30096 67.8897 6.32355 67.8505L6.54009 67.9755L6.75662 68.1004C6.71739 68.1684 6.69535 68.2014 6.66629 68.2547L6.44677 68.1351ZM5.59326 55.1967L5.79078 55.3499C4.25515 57.3292 4.05766 60.0864 5.29619 62.2794L5.07851 62.4024L4.86082 62.5253C3.52383 60.1579 3.73584 57.1829 5.39574 55.0434L5.59326 55.1967ZM9.18648 49.3573L9.40702 49.475L7.33922 53.3483L7.11868 53.2305L6.89814 53.1128L8.96594 49.2395L9.18648 49.3573ZM8.52438 55.4533L8.73999 55.5798L7.79311 57.1932L7.57751 57.0666L7.3619 56.9401L8.30877 55.3268L8.52438 55.4533ZM7.36631 60.8745L7.59476 60.7729L8.19771 62.1293L7.96926 62.2309L7.74081 62.3324L7.13787 60.976L7.36631 60.8745ZM16.414 8.84867L16.414 9.09867C15.1304 9.09867 14.004 9.66803 13.2139 10.4928C12.4209 11.3205 11.9835 12.387 12.05 13.3619L11.8006 13.3789L11.5512 13.3959C11.4733 12.2537 11.9829 11.055 12.8528 10.1469C13.7256 9.23588 14.9781 8.59867 16.414 8.59867L16.414 8.84867ZM11.8006 13.3789L12.0502 13.3647C12.0623 13.5776 12.0743 13.9964 12.0393 14.4113C12.0219 14.6184 11.9922 14.8319 11.9421 15.0212C11.8938 15.2039 11.8187 15.3957 11.6907 15.5306L11.5093 15.3586L11.3279 15.1865C11.3685 15.1437 11.4171 15.0507 11.4587 14.8934C11.4985 14.7428 11.525 14.561 11.5411 14.3693C11.5734 13.9864 11.5624 13.5931 11.551 13.3931L11.8006 13.3789ZM9.60084 14.0253L9.46561 13.815C9.78295 13.6109 10.2797 13.5335 10.7408 13.7442C11.2148 13.9608 11.605 14.4581 11.7555 15.3153L11.5093 15.3586L11.2631 15.4018C11.1326 14.6591 10.8181 14.3293 10.533 14.199C10.2348 14.0627 9.91782 14.1187 9.73607 14.2356L9.60084 14.0253ZM16.414 19.1043L16.1701 19.1591C15.7817 17.4326 15.4003 16.2367 14.9166 15.4282C14.4426 14.6361 13.8744 14.2216 13.0883 14.0471L13.1424 13.8031L13.1966 13.559C14.1294 13.766 14.808 14.273 15.3456 15.1715C15.8735 16.0537 16.2684 17.3177 16.6579 19.0494L16.414 19.1043ZM14.7619 10.8461L14.9242 11.0363C14.2707 11.5937 13.4841 12.5253 13.3918 13.8209L13.1424 13.8031L12.8931 13.7853C12.999 12.2981 13.8991 11.2534 14.5997 10.6559L14.7619 10.8461ZM16.414 14.84L16.197 14.9642C16.0321 14.6757 15.8333 14.3776 15.6247 14.0593C15.4181 13.7443 15.2036 13.4122 15.018 13.0687C14.6482 12.3843 14.3741 11.6215 14.5156 10.8035L14.7619 10.8461L15.0083 10.8887C14.8952 11.5424 15.1078 12.1831 15.4579 12.831C15.6323 13.1538 15.8362 13.47 16.0428 13.7852C16.2473 14.0971 16.4566 14.4109 16.631 14.7159L16.414 14.84ZM9.60084 14.0253L9.45819 14.2306C8.52079 13.5792 7.93926 12.8699 7.74666 12.0751C7.55306 11.2762 7.76566 10.4465 8.29586 9.58593L8.5087 9.71706L8.72155 9.8482C8.2334 10.6405 8.08105 11.332 8.2326 11.9574C8.38515 12.587 8.85887 13.2053 9.7435 13.82L9.60084 14.0253ZM8.5087 15.2952L8.71626 15.4346C8.34084 15.9937 8.21201 16.4319 8.03288 17.3331L7.78768 17.2844L7.54247 17.2357C7.72549 16.3148 7.86982 15.7983 8.30115 15.1558L8.5087 15.2952ZM5.84307 11.7874L6.0907 11.8217C6.05004 12.1153 6.05414 12.7545 6.37481 13.4015C6.69006 14.0376 7.32137 14.7029 8.57615 15.0545L8.5087 15.2952L8.44125 15.5359C7.05436 15.1473 6.30692 14.3905 5.92681 13.6235C5.55212 12.8675 5.54424 12.1228 5.59543 11.7531L5.84307 11.7874ZM12.3348 8.54402L12.4258 8.77685C12.3956 8.78866 12.3674 8.79286 12.3611 8.79386C12.3489 8.79581 12.3364 8.79729 12.3259 8.79844C12.3054 8.80068 12.2772 8.80324 12.25 8.80587C12.1923 8.81145 12.117 8.81932 12.029 8.83299C11.852 8.86049 11.6282 8.9108 11.4062 9.00878C10.9736 9.19975 10.5439 9.56936 10.4812 10.3529L10.232 10.333L9.98278 10.313C10.0632 9.30764 10.6425 8.79934 11.2043 8.55136C11.4796 8.42986 11.7494 8.37043 11.9522 8.33892C12.0541 8.32309 12.1403 8.31413 12.2019 8.30819C12.2344 8.30506 12.2553 8.30319 12.2716 8.3014C12.2795 8.30053 12.2824 8.3001 12.2823 8.30012C12.2822 8.30014 12.2792 8.3006 12.2745 8.30166C12.2711 8.30242 12.2591 8.30516 12.2437 8.3112L12.3348 8.54402ZM8.90134 32.0246L9.06698 31.8374C9.40995 32.1407 10.0089 32.5536 10.6759 32.7964C11.3457 33.0403 12.0385 33.0976 12.6152 32.7666L12.7397 32.9834L12.8641 33.2002C12.1044 33.6363 11.2394 33.5337 10.5048 33.2663C9.76729 32.9977 9.11533 32.5477 8.7357 32.2119L8.90134 32.0246ZM9.90154 34.0444L10.1247 33.9317C10.4022 34.4812 10.6703 35.0174 10.8449 35.4028L10.6172 35.506L10.3895 35.6092C10.22 35.2351 9.95683 34.7085 9.67838 34.1571L9.90154 34.0444ZM9.90154 34.0444L10.0013 33.8152C10.4256 33.9999 10.9695 34.2779 11.5696 34.4447C12.1662 34.6106 12.7671 34.6499 13.2935 34.3925L13.4033 34.6171L13.5132 34.8417C12.8278 35.1768 12.084 35.1067 11.4357 34.9264C10.7909 34.7472 10.1897 34.4425 9.80173 34.2736L9.90154 34.0444ZM9.47214 26.7656L9.71659 26.8179L9.43093 28.1512L9.18648 28.0988L8.94203 28.0465L9.22769 26.7132L9.47214 26.7656ZM10.6172 35.506L10.8449 35.4028C11.6849 37.256 12.1958 39.1983 12.2406 41.1296L11.9906 41.1354L11.7407 41.1412C11.6978 39.2897 11.2074 37.4137 10.3895 35.6092L10.6172 35.506ZM13.4033 34.6171L13.6312 34.5143C14.9367 37.4089 15.3913 40.772 14.871 43.6976L14.6249 43.6538L14.3787 43.61C14.8802 40.7907 14.4425 37.5294 13.1754 34.7199L13.4033 34.6171ZM14.6249 43.6538L14.7202 43.4227C15.4888 43.7397 15.8622 43.9023 16.2246 43.9525C16.5726 44.0006 16.9225 43.9449 17.6381 43.7552L17.7022 43.9968L17.7663 44.2385C17.0506 44.4282 16.6133 44.511 16.1561 44.4477C15.7134 44.3865 15.2638 44.1878 14.5295 43.8849L14.6249 43.6538ZM14.6249 43.6538C14.6249 43.9038 14.6241 43.9038 14.6234 43.9038C14.6231 43.9038 14.6224 43.9038 14.6218 43.9038C14.6208 43.9038 14.6198 43.9037 14.6188 43.9037C14.6168 43.9037 14.6148 43.9036 14.6128 43.9035C14.6087 43.9033 14.6047 43.903 14.6007 43.9026C14.5927 43.9019 14.5848 43.9008 14.5769 43.8993C14.5613 43.8964 14.546 43.8923 14.5312 43.887C14.5019 43.8767 14.4729 43.8619 14.4439 43.8433C14.3869 43.8067 14.319 43.7483 14.2345 43.6556C14.0654 43.4704 13.8048 43.1202 13.4077 42.4476L13.623 42.3205L13.8382 42.1934C14.2284 42.8541 14.4687 43.1705 14.6038 43.3186C14.6713 43.3926 14.7063 43.4176 14.7142 43.4226C14.7176 43.4248 14.7115 43.4204 14.697 43.4153C14.6896 43.4127 14.6797 43.4099 14.6676 43.4076C14.6616 43.4065 14.6549 43.4055 14.6478 43.4049C14.6442 43.4045 14.6405 43.4043 14.6367 43.4041C14.6348 43.404 14.6328 43.4039 14.6309 43.4039C14.6299 43.4038 14.6289 43.4038 14.6279 43.4038C14.6274 43.4038 14.6266 43.4038 14.6264 43.4038C14.6256 43.4038 14.6249 43.4038 14.6249 43.6538ZM11.9906 41.1354L12.2406 41.1296C12.2576 41.8653 12.207 42.5994 12.0812 43.3261L11.8348 43.2834L11.5885 43.2408C11.7085 42.5478 11.757 41.8462 11.7407 41.1412L11.9906 41.1354ZM11.3513 45.091L11.586 45.1772C11.4182 45.634 11.2167 46.0853 10.9795 46.5295L10.759 46.4118L10.5384 46.294C10.7647 45.8702 10.9568 45.44 11.1166 45.0048L11.3513 45.091ZM13.4033 46.9284L13.6317 47.0301C13.3626 47.6342 13.055 48.2315 12.7095 48.8205L12.4938 48.694L12.2782 48.5675C12.6146 47.994 12.9137 47.4133 13.175 46.8267L13.4033 46.9284ZM11.3513 45.091L11.5712 44.972C11.7161 45.2397 11.9905 45.6533 12.3339 46.0095C12.6842 46.3727 13.069 46.6374 13.4325 46.6801L13.4033 46.9284L13.3742 47.1767C12.8344 47.1133 12.3471 46.7435 11.974 46.3565C11.5942 45.9626 11.2942 45.5106 11.1315 45.21L11.3513 45.091ZM17.7022 43.9968L17.9246 44.1109C17.6387 44.6684 17.085 45.0914 16.4498 45.3684C15.8111 45.6469 15.0637 45.7901 14.3509 45.7688C13.6405 45.7476 12.941 45.5619 12.4187 45.1567C11.8861 44.7434 11.5597 44.1174 11.585 43.2759L11.8348 43.2834L12.0847 43.2909C12.0641 43.9779 12.3229 44.4494 12.7253 44.7617C13.138 45.082 13.7232 45.2498 14.3659 45.269C15.0062 45.2881 15.6802 45.1585 16.2499 44.9101C16.8231 44.6601 17.2648 44.3018 17.4798 43.8827L17.7022 43.9968ZM7.20722 49.2942L7.44144 49.3816C7.30205 49.7551 7.08827 50.227 6.79328 50.5806C6.49861 50.9339 6.07192 51.2227 5.53361 51.0716L5.60116 50.8309L5.66871 50.5902C5.92863 50.6632 6.16867 50.5488 6.40932 50.2603C6.64965 49.9722 6.83978 49.5637 6.973 49.2068L7.20722 49.2942ZM7.09716 45.6799L7.33805 45.7468C7.25827 46.0342 7.23119 46.1799 7.23615 46.2824C7.24005 46.3628 7.26409 46.4295 7.35563 46.5533L7.15466 46.702L6.95368 46.8507C6.83052 46.6842 6.74722 46.5231 6.73674 46.3066C6.72733 46.1122 6.77885 45.892 6.85626 45.6131L7.09716 45.6799ZM4.8179 44.3763L5.05527 44.4548C4.75441 45.3649 4.62089 46.1174 4.65545 46.8474C4.68998 47.5765 4.89306 48.3005 5.29024 49.1521L5.06367 49.2578L4.83711 49.3634C4.42104 48.4714 4.19445 47.6828 4.15601 46.871C4.11761 46.0601 4.26784 45.2437 4.58054 44.2979L4.8179 44.3763ZM7.15466 46.702L7.36605 46.8354C7.25824 47.0062 7.10971 47.3054 6.92977 47.6646C6.75379 48.0158 6.55283 48.4137 6.34842 48.7584C6.1503 49.0925 5.92667 49.4165 5.69618 49.5854C5.57871 49.6714 5.41731 49.7481 5.23506 49.7098C5.04991 49.6709 4.92553 49.531 4.84276 49.3748L5.06367 49.2578L5.28459 49.1407C5.33422 49.2344 5.35994 49.2251 5.33793 49.2205C5.31883 49.2165 5.33361 49.2312 5.40066 49.182C5.53923 49.0805 5.71805 48.8411 5.91836 48.5034C6.11237 48.1762 6.3058 47.7938 6.48273 47.4406C6.65569 47.0954 6.81858 46.766 6.94326 46.5685L7.15466 46.702ZM9.54548 4.99914L9.79316 5.03308C9.70124 5.70388 9.73669 6.45127 10.0852 7.05779C10.4252 7.6494 11.0904 8.15359 12.3625 8.29556L12.3348 8.54402L12.307 8.79248C10.9123 8.63682 10.0874 8.06508 9.65171 7.30691C9.2246 6.56365 9.19883 5.68741 9.29779 4.9652L9.54548 4.99914ZM11.5138 1.53558L11.693 1.36124C12.5049 2.19572 12.6321 3.29574 12.3568 4.3328L12.1152 4.26866L11.8736 4.20453C12.117 3.28757 11.9918 2.38543 11.3346 1.70992L11.5138 1.53558ZM7.34111 5.1855L7.58488 5.13003L8.03145 7.09244L7.78768 7.14791L7.54391 7.20339L7.09735 5.24097L7.34111 5.1855ZM7.23004 3.50158L7.47705 3.54014C7.39666 4.05518 7.46227 4.59122 7.58488 5.13003L7.34111 5.1855L7.09735 5.24097C6.96862 4.67527 6.88858 4.06819 6.98303 3.46303L7.23004 3.50158ZM7.69166 47.9626L7.91769 48.0695C7.82333 48.2691 7.74729 48.48 7.67284 48.7018C7.59984 48.9193 7.52605 49.1549 7.44144 49.3816L7.20722 49.2942L6.973 49.2068C7.05374 48.9904 7.12135 48.7736 7.19882 48.5427C7.27484 48.3162 7.35835 48.0828 7.46563 47.8558L7.69166 47.9626ZM10.7138 1.09394L10.7717 0.850749C11.1107 0.931512 11.4373 1.09853 11.693 1.36124L11.5138 1.53558L11.3346 1.70992C11.154 1.52432 10.9159 1.39908 10.6558 1.33714L10.7138 1.09394ZM9.75602 4.3776L9.96433 4.51582C9.87221 4.65464 9.82078 4.83152 9.79316 5.03308L9.54548 4.99914L9.29779 4.9652C9.33041 4.72715 9.39696 4.46654 9.54771 4.23937L9.75602 4.3776ZM11.7273 5.03713L11.5246 4.89092C11.6835 4.67048 11.8098 4.4448 11.8736 4.20453L12.1152 4.26866L12.3568 4.3328C12.2714 4.65457 12.108 4.93663 11.9301 5.18333L11.7273 5.03713ZM10.5898 72.4047L10.5898 72.1547L14.6249 72.1547L14.6249 72.4047L14.6249 72.6547L10.5898 72.6547L10.5898 72.4047ZM14.6249 72.4047L14.7566 72.6172L12.7254 73.8764L12.5937 73.6639L12.4619 73.4514L14.4932 72.1922L14.6249 72.4047ZM10.3247 125.588L10.3247 125.338L14.6249 125.338L14.6249 125.588L14.6249 125.838L10.3247 125.838L10.3247 125.588ZM14.6249 125.588L14.4772 125.79L12.3518 124.234L12.4994 124.032L12.6471 123.831L14.7725 125.386L14.6249 125.588ZM12.6672 98.9559L12.7852 99.1763C11.7144 99.7496 10.9272 101.037 10.3616 102.796C9.79908 104.546 9.47246 106.71 9.28314 108.96C9.09401 111.207 9.0428 113.529 9.02656 115.591C9.01036 117.646 9.02905 119.456 8.97888 120.657L8.7291 120.646L8.47932 120.636C8.52903 119.446 8.51025 117.659 8.52657 115.587C8.54285 113.521 8.59416 111.185 8.7849 108.918C8.97546 106.653 9.30608 104.446 9.88555 102.643C10.4618 100.851 11.3014 99.4036 12.5492 98.7355L12.6672 98.9559ZM8.7291 77.1848L8.97886 77.1739C9.08152 79.5282 8.9275 84.3341 9.31879 88.9045C9.51378 91.182 9.84312 93.374 10.4014 95.1374C10.9635 96.9129 11.739 98.1935 12.7822 98.7339L12.6672 98.9559L12.5523 99.1779C11.3231 98.5412 10.4955 97.0913 9.92469 95.2883C9.35006 93.4732 9.01681 91.2387 8.82061 88.9471C8.42954 84.3793 8.5788 79.4767 8.47934 77.1957L8.7291 77.1848ZM8.7291 120.646C8.79796 120.406 8.79806 120.406 8.79816 120.406C8.79821 120.406 8.79833 120.406 8.79843 120.406C8.79864 120.406 8.79889 120.406 8.79918 120.406C8.79977 120.406 8.80054 120.407 8.80149 120.407C8.8034 120.407 8.80602 120.408 8.80934 120.409C8.81599 120.411 8.82544 120.414 8.83753 120.418C8.86172 120.425 8.89648 120.437 8.94052 120.452C9.02858 120.482 9.15393 120.527 9.30617 120.589C9.61024 120.713 10.0238 120.906 10.4625 121.181C11.3359 121.728 12.335 122.617 12.7388 123.96L12.4994 124.032L12.26 124.104C11.9053 122.924 11.0192 122.12 10.1971 121.605C9.78803 121.349 9.40123 121.168 9.1169 121.052C8.97493 120.994 8.85907 120.952 8.77946 120.925C8.73967 120.911 8.70899 120.902 8.68868 120.895C8.67853 120.892 8.67098 120.89 8.66618 120.888C8.66378 120.888 8.66208 120.887 8.66108 120.887C8.66058 120.887 8.66026 120.887 8.66012 120.887C8.66005 120.886 8.66002 120.886 8.66004 120.886C8.66005 120.886 8.6601 120.887 8.66011 120.887C8.66017 120.887 8.66024 120.887 8.7291 120.646ZM12.5937 73.6639L12.8371 73.7207C12.505 75.1455 11.4755 76.0728 10.5595 76.6367C10.0993 76.9201 9.66013 77.1167 9.33608 77.2425C9.17381 77.3055 9.03974 77.3511 8.94547 77.381C8.89831 77.396 8.86106 77.4072 8.83516 77.4147C8.82221 77.4184 8.81209 77.4213 8.80498 77.4232C8.80142 77.4242 8.79862 77.425 8.7966 77.4255C8.79558 77.4258 8.79476 77.426 8.79414 77.4262C8.79383 77.4263 8.79357 77.4263 8.79335 77.4264C8.79325 77.4264 8.79313 77.4264 8.79307 77.4265C8.79296 77.4265 8.79287 77.4265 8.7291 77.1848C8.66534 76.943 8.66527 76.9431 8.66521 76.9431C8.6652 76.9431 8.66515 76.9431 8.66515 76.9431C8.66513 76.9431 8.66516 76.9431 8.66525 76.9431C8.66541 76.943 8.66577 76.9429 8.66631 76.9428C8.66741 76.9425 8.66927 76.942 8.67187 76.9413C8.67708 76.9398 8.68524 76.9375 8.6962 76.9344C8.71811 76.928 8.75115 76.9182 8.79389 76.9046C8.87941 76.8774 9.00358 76.8352 9.15508 76.7764C9.45857 76.6586 9.86907 76.4747 10.2974 76.211C11.1584 75.6808 12.0611 74.8477 12.3502 73.6072L12.5937 73.6639Z" fill="url(#paint0_linear_1243_143)" fill-opacity="0.7"/>
<defs>
<linearGradient id="paint0_linear_1243_143" x1="12.5" y1="197" x2="12.5" y2="1" gradientUnits="userSpaceOnUse">
<stop stop-color="#644A33"/>
<stop offset="0.4" stop-color="#CA9567"/>
<stop offset="0.603" stop-color="#CA9567" stop-opacity="0.853781"/>
<stop offset="1" stop-color="#CA9564" stop-opacity="0.290196"/>
</linearGradient>
</defs>
</svg>
