<svg width="144" height="27" viewBox="0 0 144 27" fill="none" xmlns="http://www.w3.org/2000/svg">
<g style="mix-blend-mode:plus-lighter" filter="url(#filter0_i_1039_710)">
<path d="M39.8728 20.593H40.0528V20.793H33.6728V20.593H33.8528C34.1462 20.593 34.3595 20.5064 34.4928 20.333C34.6395 20.1464 34.7128 19.973 34.7128 19.813C34.7128 19.653 34.6795 19.493 34.6128 19.333L33.6328 16.873H28.9528L27.9128 19.333C27.8462 19.5064 27.8128 19.673 27.8128 19.833C27.8128 19.9797 27.8795 20.1464 28.0128 20.333C28.1595 20.5064 28.3862 20.593 28.6928 20.593H28.8528V20.793H24.5728V20.593H24.7528C25.0595 20.593 25.3662 20.4997 25.6728 20.313C25.9795 20.1264 26.2328 19.8464 26.4328 19.473L31.0528 9.01303C31.6795 7.69303 32.0128 6.8197 32.0528 6.39303H32.2328L38.1728 19.433C38.3728 19.8197 38.6262 20.113 38.9328 20.313C39.2395 20.4997 39.5528 20.593 39.8728 20.593ZM29.2928 16.033H33.2928L31.3528 11.113L29.2928 16.033ZM47.9447 21.053C45.3714 21.053 43.3514 20.4064 41.8847 19.113C40.418 17.8197 39.6847 16.0464 39.6847 13.793C39.6847 11.5397 40.4114 9.76636 41.8647 8.47303C43.318 7.16636 45.3114 6.51303 47.8447 6.51303C49.778 6.51303 51.438 6.87303 52.8247 7.59303L52.8647 11.033H52.7047C52.0247 8.5797 50.4714 7.35303 48.0447 7.35303C46.4714 7.35303 45.2247 7.92636 44.3047 9.07303C43.398 10.2064 42.9447 11.7597 42.9447 13.733C42.9447 15.7064 43.378 17.273 44.2447 18.433C45.1247 19.593 46.3114 20.193 47.8047 20.233C49.3514 20.233 50.5314 19.8464 51.3447 19.073C52.1714 18.273 52.7447 16.8997 53.0647 14.953H53.2247L53.4247 18.393C52.3447 20.1797 50.518 21.0664 47.9447 21.053ZM55.4316 20.593C55.7782 20.593 56.0716 20.473 56.3116 20.233C56.5649 19.9797 56.6982 19.6797 56.7116 19.333V8.19303C56.6716 7.72636 56.4516 7.3797 56.0516 7.15303C55.8516 7.04636 55.6449 6.99303 55.4316 6.99303H55.1716V6.79303H62.8316C63.2449 6.79303 63.6982 6.75303 64.1916 6.67303C64.6849 6.59303 65.0316 6.51303 65.2316 6.43303V9.93303H65.0316V9.69303C65.0316 9.09303 64.8516 8.61303 64.4916 8.25303C64.1449 7.8797 63.6716 7.6797 63.0716 7.65303H59.7116V13.473H62.3516C62.8449 13.4597 63.2516 13.293 63.5716 12.973C63.8916 12.6397 64.0516 12.233 64.0516 11.753V11.573H64.2516V16.193H64.0516V16.033C64.0516 15.3664 63.7849 14.873 63.2516 14.553C62.9849 14.4064 62.6916 14.3264 62.3716 14.313H59.7116V19.933H62.3316C63.3049 19.933 64.1182 19.653 64.7716 19.093C65.4382 18.533 65.9316 17.7397 66.2516 16.713H66.4516L65.5316 20.793H55.1716V20.593H55.4316ZM67.9488 18.933C67.9488 17.973 68.1554 17.153 68.5688 16.473H68.7488C68.7354 16.5797 68.7288 16.6864 68.7288 16.793C68.7288 17.713 69.0554 18.5197 69.7088 19.213C70.3754 19.893 71.2821 20.233 72.4288 20.233C73.3221 20.233 74.0154 20.0197 74.5088 19.593C75.0154 19.1664 75.2688 18.6264 75.2688 17.973C75.2688 17.1864 74.7354 16.4997 73.6688 15.913L70.1888 13.613C69.4954 13.213 68.9954 12.733 68.6888 12.173C68.3954 11.5997 68.2488 11.0197 68.2488 10.433C68.2488 9.1797 68.6421 8.21303 69.4288 7.53303C70.2288 6.85303 71.2488 6.51303 72.4888 6.51303C73.2221 6.51303 74.1288 6.5797 75.2088 6.71303H76.4688L76.2088 9.65303H76.0088C76.0088 8.9597 75.7488 8.40636 75.2288 7.99303C74.7221 7.56636 74.0421 7.35303 73.1888 7.35303C72.1488 7.35303 71.3954 7.67303 70.9288 8.31303C70.6888 8.6197 70.5688 8.96636 70.5688 9.35303C70.5688 9.99303 71.0354 10.5864 71.9688 11.133L75.7888 13.613C76.9888 14.3064 77.5888 15.3264 77.5888 16.673C77.5888 18.0997 77.1021 19.193 76.1288 19.953C75.1688 20.6997 73.8888 21.073 72.2888 21.073C71.3821 21.073 70.5421 20.9664 69.7688 20.753C69.0088 20.5264 68.4488 20.2264 68.0888 19.853C67.9954 19.5997 67.9488 19.293 67.9488 18.933ZM79.5113 18.933C79.5113 17.973 79.7179 17.153 80.1313 16.473H80.3113C80.2979 16.5797 80.2913 16.6864 80.2913 16.793C80.2913 17.713 80.6179 18.5197 81.2713 19.213C81.9379 19.893 82.8446 20.233 83.9913 20.233C84.8846 20.233 85.5779 20.0197 86.0713 19.593C86.5779 19.1664 86.8313 18.6264 86.8313 17.973C86.8313 17.1864 86.2979 16.4997 85.2313 15.913L81.7513 13.613C81.0579 13.213 80.5579 12.733 80.2513 12.173C79.9579 11.5997 79.8113 11.0197 79.8113 10.433C79.8113 9.1797 80.2046 8.21303 80.9913 7.53303C81.7913 6.85303 82.8113 6.51303 84.0513 6.51303C84.7846 6.51303 85.6913 6.5797 86.7713 6.71303H88.0313L87.7713 9.65303H87.5713C87.5713 8.9597 87.3113 8.40636 86.7913 7.99303C86.2846 7.56636 85.6046 7.35303 84.7513 7.35303C83.7113 7.35303 82.9579 7.67303 82.4913 8.31303C82.2513 8.6197 82.1313 8.96636 82.1313 9.35303C82.1313 9.99303 82.5979 10.5864 83.5313 11.133L87.3513 13.613C88.5513 14.3064 89.1513 15.3264 89.1513 16.673C89.1513 18.0997 88.6646 19.193 87.6913 19.953C86.7313 20.6997 85.4513 21.073 83.8513 21.073C82.9446 21.073 82.1046 20.9664 81.3313 20.753C80.5713 20.5264 80.0113 20.2264 79.6513 19.853C79.5579 19.5997 79.5113 19.293 79.5113 18.933ZM104.834 20.593H105.014V20.793H98.6338V20.593H98.8138C99.1071 20.593 99.3204 20.5064 99.4538 20.333C99.6004 20.1464 99.6738 19.973 99.6738 19.813C99.6738 19.653 99.6404 19.493 99.5738 19.333L98.5938 16.873H93.9138L92.8738 19.333C92.8071 19.5064 92.7738 19.673 92.7738 19.833C92.7738 19.9797 92.8404 20.1464 92.9738 20.333C93.1204 20.5064 93.3471 20.593 93.6538 20.593H93.8138V20.793H89.5338V20.593H89.7138C90.0204 20.593 90.3271 20.4997 90.6338 20.313C90.9404 20.1264 91.1938 19.8464 91.3938 19.473L96.0138 9.01303C96.6404 7.69303 96.9738 6.8197 97.0138 6.39303H97.1938L103.134 19.433C103.334 19.8197 103.587 20.113 103.894 20.313C104.2 20.4997 104.514 20.593 104.834 20.593ZM94.2538 16.033H98.2538L96.3138 11.113L94.2538 16.033ZM110.75 7.67303H109.89C109.864 7.67303 109.844 7.67303 109.83 7.67303V19.333C109.844 19.8264 110.057 20.193 110.47 20.433C110.67 20.5397 110.884 20.593 111.11 20.593H111.37V20.793H105.29V20.593H105.55C106.03 20.593 106.397 20.3864 106.65 19.973C106.757 19.7864 106.817 19.5797 106.83 19.353V8.25303C106.817 7.90636 106.684 7.61303 106.43 7.37303C106.19 7.1197 105.897 6.99303 105.55 6.99303H105.29V6.79303H112.15C113.444 6.79303 114.537 7.07303 115.43 7.63303C115.884 7.91303 116.244 8.30636 116.51 8.81303C116.777 9.30636 116.91 9.87303 116.91 10.513C116.91 11.1397 116.797 11.7197 116.57 12.253C116.357 12.7864 115.99 13.253 115.47 13.653C114.964 14.053 114.35 14.293 113.63 14.373C114.404 14.6264 115.084 15.213 115.67 16.133C117.11 18.4397 118.177 19.813 118.87 20.253C119.217 20.4664 119.65 20.5797 120.17 20.593V20.793H118.21C117.077 20.793 116.13 20.6397 115.37 20.333C114.61 20.013 113.99 19.473 113.51 18.713C113.27 18.3264 112.964 17.7464 112.59 16.973C112.217 16.1864 111.97 15.6264 111.85 15.293C111.49 14.493 111.037 14.0464 110.49 13.953V13.753H111.11C111.71 13.753 112.237 13.573 112.69 13.213C113.157 12.853 113.47 12.2664 113.63 11.453C113.684 11.173 113.71 10.953 113.71 10.793C113.71 9.6997 113.49 8.91303 113.05 8.43303C112.61 7.9397 112.044 7.68636 111.35 7.67303C111.217 7.67303 111.017 7.67303 110.75 7.67303Z" fill="url(#paint0_linear_1039_710)"/>
<path d="M39.8728 20.593H40.0528V20.793H33.6728V20.593H33.8528C34.1462 20.593 34.3595 20.5064 34.4928 20.333C34.6395 20.1464 34.7128 19.973 34.7128 19.813C34.7128 19.653 34.6795 19.493 34.6128 19.333L33.6328 16.873H28.9528L27.9128 19.333C27.8462 19.5064 27.8128 19.673 27.8128 19.833C27.8128 19.9797 27.8795 20.1464 28.0128 20.333C28.1595 20.5064 28.3862 20.593 28.6928 20.593H28.8528V20.793H24.5728V20.593H24.7528C25.0595 20.593 25.3662 20.4997 25.6728 20.313C25.9795 20.1264 26.2328 19.8464 26.4328 19.473L31.0528 9.01303C31.6795 7.69303 32.0128 6.8197 32.0528 6.39303H32.2328L38.1728 19.433C38.3728 19.8197 38.6262 20.113 38.9328 20.313C39.2395 20.4997 39.5528 20.593 39.8728 20.593ZM29.2928 16.033H33.2928L31.3528 11.113L29.2928 16.033ZM47.9447 21.053C45.3714 21.053 43.3514 20.4064 41.8847 19.113C40.418 17.8197 39.6847 16.0464 39.6847 13.793C39.6847 11.5397 40.4114 9.76636 41.8647 8.47303C43.318 7.16636 45.3114 6.51303 47.8447 6.51303C49.778 6.51303 51.438 6.87303 52.8247 7.59303L52.8647 11.033H52.7047C52.0247 8.5797 50.4714 7.35303 48.0447 7.35303C46.4714 7.35303 45.2247 7.92636 44.3047 9.07303C43.398 10.2064 42.9447 11.7597 42.9447 13.733C42.9447 15.7064 43.378 17.273 44.2447 18.433C45.1247 19.593 46.3114 20.193 47.8047 20.233C49.3514 20.233 50.5314 19.8464 51.3447 19.073C52.1714 18.273 52.7447 16.8997 53.0647 14.953H53.2247L53.4247 18.393C52.3447 20.1797 50.518 21.0664 47.9447 21.053ZM55.4316 20.593C55.7782 20.593 56.0716 20.473 56.3116 20.233C56.5649 19.9797 56.6982 19.6797 56.7116 19.333V8.19303C56.6716 7.72636 56.4516 7.3797 56.0516 7.15303C55.8516 7.04636 55.6449 6.99303 55.4316 6.99303H55.1716V6.79303H62.8316C63.2449 6.79303 63.6982 6.75303 64.1916 6.67303C64.6849 6.59303 65.0316 6.51303 65.2316 6.43303V9.93303H65.0316V9.69303C65.0316 9.09303 64.8516 8.61303 64.4916 8.25303C64.1449 7.8797 63.6716 7.6797 63.0716 7.65303H59.7116V13.473H62.3516C62.8449 13.4597 63.2516 13.293 63.5716 12.973C63.8916 12.6397 64.0516 12.233 64.0516 11.753V11.573H64.2516V16.193H64.0516V16.033C64.0516 15.3664 63.7849 14.873 63.2516 14.553C62.9849 14.4064 62.6916 14.3264 62.3716 14.313H59.7116V19.933H62.3316C63.3049 19.933 64.1182 19.653 64.7716 19.093C65.4382 18.533 65.9316 17.7397 66.2516 16.713H66.4516L65.5316 20.793H55.1716V20.593H55.4316ZM67.9488 18.933C67.9488 17.973 68.1554 17.153 68.5688 16.473H68.7488C68.7354 16.5797 68.7288 16.6864 68.7288 16.793C68.7288 17.713 69.0554 18.5197 69.7088 19.213C70.3754 19.893 71.2821 20.233 72.4288 20.233C73.3221 20.233 74.0154 20.0197 74.5088 19.593C75.0154 19.1664 75.2688 18.6264 75.2688 17.973C75.2688 17.1864 74.7354 16.4997 73.6688 15.913L70.1888 13.613C69.4954 13.213 68.9954 12.733 68.6888 12.173C68.3954 11.5997 68.2488 11.0197 68.2488 10.433C68.2488 9.1797 68.6421 8.21303 69.4288 7.53303C70.2288 6.85303 71.2488 6.51303 72.4888 6.51303C73.2221 6.51303 74.1288 6.5797 75.2088 6.71303H76.4688L76.2088 9.65303H76.0088C76.0088 8.9597 75.7488 8.40636 75.2288 7.99303C74.7221 7.56636 74.0421 7.35303 73.1888 7.35303C72.1488 7.35303 71.3954 7.67303 70.9288 8.31303C70.6888 8.6197 70.5688 8.96636 70.5688 9.35303C70.5688 9.99303 71.0354 10.5864 71.9688 11.133L75.7888 13.613C76.9888 14.3064 77.5888 15.3264 77.5888 16.673C77.5888 18.0997 77.1021 19.193 76.1288 19.953C75.1688 20.6997 73.8888 21.073 72.2888 21.073C71.3821 21.073 70.5421 20.9664 69.7688 20.753C69.0088 20.5264 68.4488 20.2264 68.0888 19.853C67.9954 19.5997 67.9488 19.293 67.9488 18.933ZM79.5113 18.933C79.5113 17.973 79.7179 17.153 80.1313 16.473H80.3113C80.2979 16.5797 80.2913 16.6864 80.2913 16.793C80.2913 17.713 80.6179 18.5197 81.2713 19.213C81.9379 19.893 82.8446 20.233 83.9913 20.233C84.8846 20.233 85.5779 20.0197 86.0713 19.593C86.5779 19.1664 86.8313 18.6264 86.8313 17.973C86.8313 17.1864 86.2979 16.4997 85.2313 15.913L81.7513 13.613C81.0579 13.213 80.5579 12.733 80.2513 12.173C79.9579 11.5997 79.8113 11.0197 79.8113 10.433C79.8113 9.1797 80.2046 8.21303 80.9913 7.53303C81.7913 6.85303 82.8113 6.51303 84.0513 6.51303C84.7846 6.51303 85.6913 6.5797 86.7713 6.71303H88.0313L87.7713 9.65303H87.5713C87.5713 8.9597 87.3113 8.40636 86.7913 7.99303C86.2846 7.56636 85.6046 7.35303 84.7513 7.35303C83.7113 7.35303 82.9579 7.67303 82.4913 8.31303C82.2513 8.6197 82.1313 8.96636 82.1313 9.35303C82.1313 9.99303 82.5979 10.5864 83.5313 11.133L87.3513 13.613C88.5513 14.3064 89.1513 15.3264 89.1513 16.673C89.1513 18.0997 88.6646 19.193 87.6913 19.953C86.7313 20.6997 85.4513 21.073 83.8513 21.073C82.9446 21.073 82.1046 20.9664 81.3313 20.753C80.5713 20.5264 80.0113 20.2264 79.6513 19.853C79.5579 19.5997 79.5113 19.293 79.5113 18.933ZM104.834 20.593H105.014V20.793H98.6338V20.593H98.8138C99.1071 20.593 99.3204 20.5064 99.4538 20.333C99.6004 20.1464 99.6738 19.973 99.6738 19.813C99.6738 19.653 99.6404 19.493 99.5738 19.333L98.5938 16.873H93.9138L92.8738 19.333C92.8071 19.5064 92.7738 19.673 92.7738 19.833C92.7738 19.9797 92.8404 20.1464 92.9738 20.333C93.1204 20.5064 93.3471 20.593 93.6538 20.593H93.8138V20.793H89.5338V20.593H89.7138C90.0204 20.593 90.3271 20.4997 90.6338 20.313C90.9404 20.1264 91.1938 19.8464 91.3938 19.473L96.0138 9.01303C96.6404 7.69303 96.9738 6.8197 97.0138 6.39303H97.1938L103.134 19.433C103.334 19.8197 103.587 20.113 103.894 20.313C104.2 20.4997 104.514 20.593 104.834 20.593ZM94.2538 16.033H98.2538L96.3138 11.113L94.2538 16.033ZM110.75 7.67303H109.89C109.864 7.67303 109.844 7.67303 109.83 7.67303V19.333C109.844 19.8264 110.057 20.193 110.47 20.433C110.67 20.5397 110.884 20.593 111.11 20.593H111.37V20.793H105.29V20.593H105.55C106.03 20.593 106.397 20.3864 106.65 19.973C106.757 19.7864 106.817 19.5797 106.83 19.353V8.25303C106.817 7.90636 106.684 7.61303 106.43 7.37303C106.19 7.1197 105.897 6.99303 105.55 6.99303H105.29V6.79303H112.15C113.444 6.79303 114.537 7.07303 115.43 7.63303C115.884 7.91303 116.244 8.30636 116.51 8.81303C116.777 9.30636 116.91 9.87303 116.91 10.513C116.91 11.1397 116.797 11.7197 116.57 12.253C116.357 12.7864 115.99 13.253 115.47 13.653C114.964 14.053 114.35 14.293 113.63 14.373C114.404 14.6264 115.084 15.213 115.67 16.133C117.11 18.4397 118.177 19.813 118.87 20.253C119.217 20.4664 119.65 20.5797 120.17 20.593V20.793H118.21C117.077 20.793 116.13 20.6397 115.37 20.333C114.61 20.013 113.99 19.473 113.51 18.713C113.27 18.3264 112.964 17.7464 112.59 16.973C112.217 16.1864 111.97 15.6264 111.85 15.293C111.49 14.493 111.037 14.0464 110.49 13.953V13.753H111.11C111.71 13.753 112.237 13.573 112.69 13.213C113.157 12.853 113.47 12.2664 113.63 11.453C113.684 11.173 113.71 10.953 113.71 10.793C113.71 9.6997 113.49 8.91303 113.05 8.43303C112.61 7.9397 112.044 7.68636 111.35 7.67303C111.217 7.67303 111.017 7.67303 110.75 7.67303Z" fill="url(#paint1_linear_1039_710)" fill-opacity="0.7"/>
<path d="M39.8728 20.593H40.0528V20.793H33.6728V20.593H33.8528C34.1462 20.593 34.3595 20.5064 34.4928 20.333C34.6395 20.1464 34.7128 19.973 34.7128 19.813C34.7128 19.653 34.6795 19.493 34.6128 19.333L33.6328 16.873H28.9528L27.9128 19.333C27.8462 19.5064 27.8128 19.673 27.8128 19.833C27.8128 19.9797 27.8795 20.1464 28.0128 20.333C28.1595 20.5064 28.3862 20.593 28.6928 20.593H28.8528V20.793H24.5728V20.593H24.7528C25.0595 20.593 25.3662 20.4997 25.6728 20.313C25.9795 20.1264 26.2328 19.8464 26.4328 19.473L31.0528 9.01303C31.6795 7.69303 32.0128 6.8197 32.0528 6.39303H32.2328L38.1728 19.433C38.3728 19.8197 38.6262 20.113 38.9328 20.313C39.2395 20.4997 39.5528 20.593 39.8728 20.593ZM29.2928 16.033H33.2928L31.3528 11.113L29.2928 16.033ZM47.9447 21.053C45.3714 21.053 43.3514 20.4064 41.8847 19.113C40.418 17.8197 39.6847 16.0464 39.6847 13.793C39.6847 11.5397 40.4114 9.76636 41.8647 8.47303C43.318 7.16636 45.3114 6.51303 47.8447 6.51303C49.778 6.51303 51.438 6.87303 52.8247 7.59303L52.8647 11.033H52.7047C52.0247 8.5797 50.4714 7.35303 48.0447 7.35303C46.4714 7.35303 45.2247 7.92636 44.3047 9.07303C43.398 10.2064 42.9447 11.7597 42.9447 13.733C42.9447 15.7064 43.378 17.273 44.2447 18.433C45.1247 19.593 46.3114 20.193 47.8047 20.233C49.3514 20.233 50.5314 19.8464 51.3447 19.073C52.1714 18.273 52.7447 16.8997 53.0647 14.953H53.2247L53.4247 18.393C52.3447 20.1797 50.518 21.0664 47.9447 21.053ZM55.4316 20.593C55.7782 20.593 56.0716 20.473 56.3116 20.233C56.5649 19.9797 56.6982 19.6797 56.7116 19.333V8.19303C56.6716 7.72636 56.4516 7.3797 56.0516 7.15303C55.8516 7.04636 55.6449 6.99303 55.4316 6.99303H55.1716V6.79303H62.8316C63.2449 6.79303 63.6982 6.75303 64.1916 6.67303C64.6849 6.59303 65.0316 6.51303 65.2316 6.43303V9.93303H65.0316V9.69303C65.0316 9.09303 64.8516 8.61303 64.4916 8.25303C64.1449 7.8797 63.6716 7.6797 63.0716 7.65303H59.7116V13.473H62.3516C62.8449 13.4597 63.2516 13.293 63.5716 12.973C63.8916 12.6397 64.0516 12.233 64.0516 11.753V11.573H64.2516V16.193H64.0516V16.033C64.0516 15.3664 63.7849 14.873 63.2516 14.553C62.9849 14.4064 62.6916 14.3264 62.3716 14.313H59.7116V19.933H62.3316C63.3049 19.933 64.1182 19.653 64.7716 19.093C65.4382 18.533 65.9316 17.7397 66.2516 16.713H66.4516L65.5316 20.793H55.1716V20.593H55.4316ZM67.9488 18.933C67.9488 17.973 68.1554 17.153 68.5688 16.473H68.7488C68.7354 16.5797 68.7288 16.6864 68.7288 16.793C68.7288 17.713 69.0554 18.5197 69.7088 19.213C70.3754 19.893 71.2821 20.233 72.4288 20.233C73.3221 20.233 74.0154 20.0197 74.5088 19.593C75.0154 19.1664 75.2688 18.6264 75.2688 17.973C75.2688 17.1864 74.7354 16.4997 73.6688 15.913L70.1888 13.613C69.4954 13.213 68.9954 12.733 68.6888 12.173C68.3954 11.5997 68.2488 11.0197 68.2488 10.433C68.2488 9.1797 68.6421 8.21303 69.4288 7.53303C70.2288 6.85303 71.2488 6.51303 72.4888 6.51303C73.2221 6.51303 74.1288 6.5797 75.2088 6.71303H76.4688L76.2088 9.65303H76.0088C76.0088 8.9597 75.7488 8.40636 75.2288 7.99303C74.7221 7.56636 74.0421 7.35303 73.1888 7.35303C72.1488 7.35303 71.3954 7.67303 70.9288 8.31303C70.6888 8.6197 70.5688 8.96636 70.5688 9.35303C70.5688 9.99303 71.0354 10.5864 71.9688 11.133L75.7888 13.613C76.9888 14.3064 77.5888 15.3264 77.5888 16.673C77.5888 18.0997 77.1021 19.193 76.1288 19.953C75.1688 20.6997 73.8888 21.073 72.2888 21.073C71.3821 21.073 70.5421 20.9664 69.7688 20.753C69.0088 20.5264 68.4488 20.2264 68.0888 19.853C67.9954 19.5997 67.9488 19.293 67.9488 18.933ZM79.5113 18.933C79.5113 17.973 79.7179 17.153 80.1313 16.473H80.3113C80.2979 16.5797 80.2913 16.6864 80.2913 16.793C80.2913 17.713 80.6179 18.5197 81.2713 19.213C81.9379 19.893 82.8446 20.233 83.9913 20.233C84.8846 20.233 85.5779 20.0197 86.0713 19.593C86.5779 19.1664 86.8313 18.6264 86.8313 17.973C86.8313 17.1864 86.2979 16.4997 85.2313 15.913L81.7513 13.613C81.0579 13.213 80.5579 12.733 80.2513 12.173C79.9579 11.5997 79.8113 11.0197 79.8113 10.433C79.8113 9.1797 80.2046 8.21303 80.9913 7.53303C81.7913 6.85303 82.8113 6.51303 84.0513 6.51303C84.7846 6.51303 85.6913 6.5797 86.7713 6.71303H88.0313L87.7713 9.65303H87.5713C87.5713 8.9597 87.3113 8.40636 86.7913 7.99303C86.2846 7.56636 85.6046 7.35303 84.7513 7.35303C83.7113 7.35303 82.9579 7.67303 82.4913 8.31303C82.2513 8.6197 82.1313 8.96636 82.1313 9.35303C82.1313 9.99303 82.5979 10.5864 83.5313 11.133L87.3513 13.613C88.5513 14.3064 89.1513 15.3264 89.1513 16.673C89.1513 18.0997 88.6646 19.193 87.6913 19.953C86.7313 20.6997 85.4513 21.073 83.8513 21.073C82.9446 21.073 82.1046 20.9664 81.3313 20.753C80.5713 20.5264 80.0113 20.2264 79.6513 19.853C79.5579 19.5997 79.5113 19.293 79.5113 18.933ZM104.834 20.593H105.014V20.793H98.6338V20.593H98.8138C99.1071 20.593 99.3204 20.5064 99.4538 20.333C99.6004 20.1464 99.6738 19.973 99.6738 19.813C99.6738 19.653 99.6404 19.493 99.5738 19.333L98.5938 16.873H93.9138L92.8738 19.333C92.8071 19.5064 92.7738 19.673 92.7738 19.833C92.7738 19.9797 92.8404 20.1464 92.9738 20.333C93.1204 20.5064 93.3471 20.593 93.6538 20.593H93.8138V20.793H89.5338V20.593H89.7138C90.0204 20.593 90.3271 20.4997 90.6338 20.313C90.9404 20.1264 91.1938 19.8464 91.3938 19.473L96.0138 9.01303C96.6404 7.69303 96.9738 6.8197 97.0138 6.39303H97.1938L103.134 19.433C103.334 19.8197 103.587 20.113 103.894 20.313C104.2 20.4997 104.514 20.593 104.834 20.593ZM94.2538 16.033H98.2538L96.3138 11.113L94.2538 16.033ZM110.75 7.67303H109.89C109.864 7.67303 109.844 7.67303 109.83 7.67303V19.333C109.844 19.8264 110.057 20.193 110.47 20.433C110.67 20.5397 110.884 20.593 111.11 20.593H111.37V20.793H105.29V20.593H105.55C106.03 20.593 106.397 20.3864 106.65 19.973C106.757 19.7864 106.817 19.5797 106.83 19.353V8.25303C106.817 7.90636 106.684 7.61303 106.43 7.37303C106.19 7.1197 105.897 6.99303 105.55 6.99303H105.29V6.79303H112.15C113.444 6.79303 114.537 7.07303 115.43 7.63303C115.884 7.91303 116.244 8.30636 116.51 8.81303C116.777 9.30636 116.91 9.87303 116.91 10.513C116.91 11.1397 116.797 11.7197 116.57 12.253C116.357 12.7864 115.99 13.253 115.47 13.653C114.964 14.053 114.35 14.293 113.63 14.373C114.404 14.6264 115.084 15.213 115.67 16.133C117.11 18.4397 118.177 19.813 118.87 20.253C119.217 20.4664 119.65 20.5797 120.17 20.593V20.793H118.21C117.077 20.793 116.13 20.6397 115.37 20.333C114.61 20.013 113.99 19.473 113.51 18.713C113.27 18.3264 112.964 17.7464 112.59 16.973C112.217 16.1864 111.97 15.6264 111.85 15.293C111.49 14.493 111.037 14.0464 110.49 13.953V13.753H111.11C111.71 13.753 112.237 13.573 112.69 13.213C113.157 12.853 113.47 12.2664 113.63 11.453C113.684 11.173 113.71 10.953 113.71 10.793C113.71 9.6997 113.49 8.91303 113.05 8.43303C112.61 7.9397 112.044 7.68636 111.35 7.67303C111.217 7.67303 111.017 7.67303 110.75 7.67303Z" fill="url(#paint2_radial_1039_710)" fill-opacity="0.3"/>
</g>
<defs>
<filter id="filter0_i_1039_710" x="24.5729" y="6.39301" width="95.5973" height="15.6801" filterUnits="userSpaceOnUse" color-interpolation-filters="sRGB">
<feFlood flood-opacity="0" result="BackgroundImageFix"/>
<feBlend mode="normal" in="SourceGraphic" in2="BackgroundImageFix" result="shape"/>
<feColorMatrix in="SourceAlpha" type="matrix" values="0 0 0 0 0 0 0 0 0 0 0 0 0 0 0 0 0 0 127 0" result="hardAlpha"/>
<feOffset dy="1"/>
<feGaussianBlur stdDeviation="0.5"/>
<feComposite in2="hardAlpha" operator="arithmetic" k2="-1" k3="1"/>
<feColorMatrix type="matrix" values="0 0 0 0 0.160784 0 0 0 0 0.0509804 0 0 0 0 0.105882 0 0 0 0.64 0"/>
<feBlend mode="normal" in2="shape" result="effect1_innerShadow_1039_710"/>
</filter>
<linearGradient id="paint0_linear_1039_710" x1="72.5975" y1="-16.1495" x2="72.5975" y2="46.2298" gradientUnits="userSpaceOnUse">
<stop offset="0.268184" stop-color="#8F703E"/>
<stop offset="0.47" stop-color="#EBD16B"/>
<stop offset="0.85" stop-color="#C69547"/>
</linearGradient>
<linearGradient id="paint1_linear_1039_710" x1="72.2124" y1="0.79303" x2="72.2124" y2="26.2068" gradientUnits="userSpaceOnUse">
<stop offset="0.45" stop-opacity="0"/>
<stop offset="0.7" stop-color="#7A3B2F"/>
</linearGradient>
<radialGradient id="paint2_radial_1039_710" cx="0" cy="0" r="1" gradientUnits="userSpaceOnUse" gradientTransform="translate(72.2124 13.4999) scale(71.2356 12.7069)">
<stop stop-color="#D9D9D9"/>
<stop offset="1" stop-opacity="0"/>
</radialGradient>
</defs>
</svg>
