<svg width="138" height="51" viewBox="0 0 138 51" fill="none" xmlns="http://www.w3.org/2000/svg">
<g filter="url(#filter0_i_1039_710)">
<mask id="path-1-outside-1_1039_710" maskUnits="userSpaceOnUse" x="1.28711" y="1.01141" width="135" height="49" fill="black">
<rect fill="white" x="1.28711" y="1.01141" width="135" height="49"/>
<path d="M23.8965 2.01141H112.988V48.9884H23.8965V2.01141Z"/>
<path d="M23.8965 2.01141L43.9429 21.9553C45.9076 23.91 45.9076 27.0898 43.9429 29.0445L23.8965 48.9884L3.84994 29.0445C1.88521 27.0898 1.88521 23.91 3.84994 21.9553L23.8965 2.01141Z"/>
<path d="M112.988 2.01141L133.035 21.9553C134.999 23.91 134.999 27.0898 133.035 29.0445L112.988 48.9884L92.9417 29.0445C90.9769 27.0898 90.9769 23.91 92.9417 21.9553L112.988 2.01141Z"/>
</mask>
<path d="M23.8965 2.01141H112.988V48.9884H23.8965V2.01141Z" fill="#0E0B18"/>
<path d="M23.8965 2.01141H112.988V48.9884H23.8965V2.01141Z" fill="url(#paint0_linear_1039_710)" fill-opacity="0.72"/>
<path d="M23.8965 2.01141H112.988V48.9884H23.8965V2.01141Z" fill="url(#paint1_linear_1039_710)" fill-opacity="0.85"/>
<path d="M23.8965 2.01141H112.988V48.9884H23.8965V2.01141Z" fill="url(#paint2_linear_1039_710)" fill-opacity="0.2"/>
<path d="M23.8965 2.01141L43.9429 21.9553C45.9076 23.91 45.9076 27.0898 43.9429 29.0445L23.8965 48.9884L3.84994 29.0445C1.88521 27.0898 1.88521 23.91 3.84994 21.9553L23.8965 2.01141Z" fill="#0E0B18"/>
<path d="M23.8965 2.01141L43.9429 21.9553C45.9076 23.91 45.9076 27.0898 43.9429 29.0445L23.8965 48.9884L3.84994 29.0445C1.88521 27.0898 1.88521 23.91 3.84994 21.9553L23.8965 2.01141Z" fill="url(#paint3_linear_1039_710)" fill-opacity="0.72"/>
<path d="M23.8965 2.01141L43.9429 21.9553C45.9076 23.91 45.9076 27.0898 43.9429 29.0445L23.8965 48.9884L3.84994 29.0445C1.88521 27.0898 1.88521 23.91 3.84994 21.9553L23.8965 2.01141Z" fill="url(#paint4_linear_1039_710)" fill-opacity="0.85"/>
<path d="M23.8965 2.01141L43.9429 21.9553C45.9076 23.91 45.9076 27.0898 43.9429 29.0445L23.8965 48.9884L3.84994 29.0445C1.88521 27.0898 1.88521 23.91 3.84994 21.9553L23.8965 2.01141Z" fill="url(#paint5_linear_1039_710)" fill-opacity="0.2"/>
<path d="M112.988 2.01141L133.035 21.9553C134.999 23.91 134.999 27.0898 133.035 29.0445L112.988 48.9884L92.9417 29.0445C90.9769 27.0898 90.9769 23.91 92.9417 21.9553L112.988 2.01141Z" fill="#0E0B18"/>
<path d="M112.988 2.01141L133.035 21.9553C134.999 23.91 134.999 27.0898 133.035 29.0445L112.988 48.9884L92.9417 29.0445C90.9769 27.0898 90.9769 23.91 92.9417 21.9553L112.988 2.01141Z" fill="url(#paint6_linear_1039_710)" fill-opacity="0.72"/>
<path d="M112.988 2.01141L133.035 21.9553C134.999 23.91 134.999 27.0898 133.035 29.0445L112.988 48.9884L92.9417 29.0445C90.9769 27.0898 90.9769 23.91 92.9417 21.9553L112.988 2.01141Z" fill="url(#paint7_linear_1039_710)" fill-opacity="0.85"/>
<path d="M112.988 2.01141L133.035 21.9553C134.999 23.91 134.999 27.0898 133.035 29.0445L112.988 48.9884L92.9417 29.0445C90.9769 27.0898 90.9769 23.91 92.9417 21.9553L112.988 2.01141Z" fill="url(#paint8_linear_1039_710)" fill-opacity="0.2"/>
<g clip-path="url(#paint9_diamond_1039_710_clip_path)" data-figma-skip-parse="true" mask="url(#path-1-outside-1_1039_710)"><g transform="matrix(0 0.0385057 -0.11173 0 68.4423 10.4827)"><rect x="0" y="0" width="1025.97" height="618.95" fill="url(#paint9_diamond_1039_710)" opacity="1" shape-rendering="crispEdges"/><rect x="0" y="0" width="1025.97" height="618.95" transform="scale(1 -1)" fill="url(#paint9_diamond_1039_710)" opacity="1" shape-rendering="crispEdges"/><rect x="0" y="0" width="1025.97" height="618.95" transform="scale(-1 1)" fill="url(#paint9_diamond_1039_710)" opacity="1" shape-rendering="crispEdges"/><rect x="0" y="0" width="1025.97" height="618.95" transform="scale(-1)" fill="url(#paint9_diamond_1039_710)" opacity="1" shape-rendering="crispEdges"/></g></g><path d="M23.8965 2.01141V1.01141H23.4837L23.1912 1.3025L23.8965 2.01141ZM112.988 2.01141L113.693 1.3025L113.401 1.01141H112.988V2.01141ZM112.988 48.9884V49.9884H113.401L113.693 49.6973L112.988 48.9884ZM23.8965 48.9884L23.1912 49.6973L23.4837 49.9884H23.8965V48.9884ZM92.9417 29.0445L92.2364 29.7534L92.9417 29.0445ZM92.9417 21.9553L93.647 22.6643L92.9417 21.9553ZM133.035 21.9553L132.329 22.6643L133.035 21.9553ZM133.035 29.0445L132.329 28.3356L133.035 29.0445ZM43.9429 21.9553L44.6482 21.2464L43.9429 21.9553ZM43.9429 29.0445L43.2376 28.3356L43.9429 29.0445ZM23.8965 2.01141V3.01141H112.988V2.01141V1.01141H23.8965V2.01141ZM112.988 2.01141H111.988V48.9884H112.988H113.988V2.01141H112.988ZM112.988 48.9884V47.9884H23.8965V48.9884V49.9884H112.988V48.9884ZM23.8965 48.9884H24.8965V2.01141H23.8965H22.8965V48.9884H23.8965ZM23.8965 2.01141L23.1912 2.72033L43.2376 22.6643L43.9429 21.9553L44.6482 21.2464L24.6017 1.3025L23.8965 2.01141ZM43.9429 29.0445L43.2376 28.3356L23.1912 48.2795L23.8965 48.9884L24.6017 49.6973L44.6482 29.7534L43.9429 29.0445ZM23.8965 48.9884L24.6017 48.2795L4.55523 28.3356L3.84994 29.0445L3.14465 29.7534L23.1912 49.6973L23.8965 48.9884ZM3.84994 21.9553L4.55523 22.6642L24.6017 2.72033L23.8965 2.01141L23.1912 1.3025L3.14465 21.2464L3.84994 21.9553ZM112.988 2.01141L112.283 2.72033L132.329 22.6643L133.035 21.9553L133.74 21.2464L113.693 1.3025L112.988 2.01141ZM133.035 29.0445L132.329 28.3356L112.283 48.2795L112.988 48.9884L113.693 49.6973L133.74 29.7534L133.035 29.0445ZM112.988 48.9884L113.693 48.2795L93.647 28.3356L92.9417 29.0445L92.2364 29.7534L112.283 49.6973L112.988 48.9884ZM92.9417 21.9553L93.647 22.6643L113.693 2.72033L112.988 2.01141L112.283 1.3025L92.2364 21.2464L92.9417 21.9553ZM92.9417 29.0445L93.647 28.3356C92.0752 26.7719 92.0752 24.228 93.647 22.6643L92.9417 21.9553L92.2364 21.2464C89.8787 23.592 89.8787 27.4078 92.2364 29.7534L92.9417 29.0445ZM133.035 21.9553L132.329 22.6643C133.901 24.228 133.901 26.7719 132.329 28.3356L133.035 29.0445L133.74 29.7534C136.098 27.4078 136.098 23.592 133.74 21.2464L133.035 21.9553ZM3.84994 29.0445L4.55523 28.3356C2.98344 26.7719 2.98344 24.228 4.55523 22.6642L3.84994 21.9553L3.14465 21.2464C0.78697 23.592 0.786968 27.4078 3.14465 29.7534L3.84994 29.0445ZM43.9429 21.9553L43.2376 22.6643C44.8094 24.228 44.8094 26.7719 43.2376 28.3356L43.9429 29.0445L44.6482 29.7534C47.0059 27.4078 47.0059 23.592 44.6482 21.2464L43.9429 21.9553Z" data-figma-gradient-fill="{&#34;type&#34;:&#34;GRADIENT_DIAMOND&#34;,&#34;stops&#34;:[{&#34;color&#34;:{&#34;r&#34;:0.60833334922790527,&#34;g&#34;:0.33458334207534790,&#34;b&#34;:0.47145834565162659,&#34;a&#34;:1.0},&#34;position&#34;:0.0},{&#34;color&#34;:{&#34;r&#34;:0.76333332061767578,&#34;g&#34;:0.36830827593803406,&#34;b&#34;:0.56582081317901611,&#34;a&#34;:1.0},&#34;position&#34;:0.40099975466728210},{&#34;color&#34;:{&#34;r&#34;:0.16346153616905212,&#34;g&#34;:0.043223004788160324,&#34;b&#34;:0.10334227979183197,&#34;a&#34;:1.0},&#34;position&#34;:1.0}],&#34;stopsVar&#34;:[{&#34;color&#34;:{&#34;r&#34;:0.60833334922790527,&#34;g&#34;:0.33458334207534790,&#34;b&#34;:0.47145834565162659,&#34;a&#34;:1.0},&#34;position&#34;:0.0},{&#34;color&#34;:{&#34;r&#34;:0.76333332061767578,&#34;g&#34;:0.36830827593803406,&#34;b&#34;:0.56582081317901611,&#34;a&#34;:1.0},&#34;position&#34;:0.40099975466728210},{&#34;color&#34;:{&#34;r&#34;:0.16346153616905212,&#34;g&#34;:0.043223004788160324,&#34;b&#34;:0.10334227979183197,&#34;a&#34;:1.0},&#34;position&#34;:1.0}],&#34;transform&#34;:{&#34;m00&#34;:-1.6791890143988408e-13,&#34;m01&#34;:-223.45957946777344,&#34;m02&#34;:180.17207336425781,&#34;m10&#34;:77.011497497558594,&#34;m11&#34;:4.7155937771411419e-15,&#34;m12&#34;:-28.023067474365234},&#34;opacity&#34;:1.0,&#34;blendMode&#34;:&#34;NORMAL&#34;,&#34;visible&#34;:true}" mask="url(#path-1-outside-1_1039_710)"/>
</g>
<path d="M47.5056 25.4999L23.8964 2.01141V48.9884L47.5056 25.4999Z" fill="url(#paint10_linear_1039_710)"/>
<path d="M89.6205 25.4999L113.23 2.01141V48.9884L89.6205 25.4999Z" fill="url(#paint11_linear_1039_710)"/>
<mask id="mask0_1039_710" style="mask-type:alpha" maskUnits="userSpaceOnUse" x="1" y="0" width="137" height="52">
<path d="M114.171 1.78156H114.758V2.36652L134.51 22.0169C136.868 24.3625 136.868 28.1782 134.51 30.5237L114.758 50.1732V50.7581H114.172L113.758 51.1693L113.345 50.7581H25.0797L24.6666 51.1693L24.2535 50.7581H23.6666V50.1732L3.91467 30.5237C1.55707 28.1782 1.55723 24.3625 3.91467 22.0169L23.6666 2.36652V1.78156H24.2545L24.6666 1.3714L25.0787 1.78156H113.346L113.758 1.3714L114.171 1.78156Z" fill="#1F1D29"/>
<path d="M114.171 1.78156H114.758V2.36652L134.51 22.0169C136.868 24.3625 136.868 28.1782 134.51 30.5237L114.758 50.1732V50.7581H114.172L113.758 51.1693L113.345 50.7581H25.0797L24.6666 51.1693L24.2535 50.7581H23.6666V50.1732L3.91467 30.5237C1.55707 28.1782 1.55723 24.3625 3.91467 22.0169L23.6666 2.36652V1.78156H24.2545L24.6666 1.3714L25.0787 1.78156H113.346L113.758 1.3714L114.171 1.78156Z" fill="url(#paint12_linear_1039_710)" fill-opacity="0.72"/>
<path d="M114.171 1.78156H114.758V2.36652L134.51 22.0169C136.868 24.3625 136.868 28.1782 134.51 30.5237L114.758 50.1732V50.7581H114.172L113.758 51.1693L113.345 50.7581H25.0797L24.6666 51.1693L24.2535 50.7581H23.6666V50.1732L3.91467 30.5237C1.55707 28.1782 1.55723 24.3625 3.91467 22.0169L23.6666 2.36652V1.78156H24.2545L24.6666 1.3714L25.0787 1.78156H113.346L113.758 1.3714L114.171 1.78156Z" fill="url(#paint13_linear_1039_710)"/>
<path d="M114.171 1.78156H114.758V2.36652L134.51 22.0169C136.868 24.3625 136.868 28.1782 134.51 30.5237L114.758 50.1732V50.7581H114.172L113.758 51.1693L113.345 50.7581H25.0797L24.6666 51.1693L24.2535 50.7581H23.6666V50.1732L3.91467 30.5237C1.55707 28.1782 1.55723 24.3625 3.91467 22.0169L23.6666 2.36652V1.78156H24.2545L24.6666 1.3714L25.0787 1.78156H113.346L113.758 1.3714L114.171 1.78156Z" stroke="#290D1B" stroke-width="2"/>
</mask>
<g mask="url(#mask0_1039_710)">
<path d="M-9.72437 23.5748H148.149C137.646 13.0985 126.45 4.86696 114.851 -1.06891H23.4982C12.018 4.82486 0.854298 13.0237 -9.72437 23.5748Z" fill="url(#paint14_linear_1039_710)" fill-opacity="0.16"/>
<path d="M2.59753 22.1331H135.057L114.264 1.24134H23.3906L2.59753 22.1331Z" fill="url(#paint15_linear_1039_710)" fill-opacity="0.3"/>
</g>
<g opacity="0.65">
<mask id="mask1_1039_710" style="mask-type:alpha" maskUnits="userSpaceOnUse" x="1" y="-1" width="137" height="52">
<path d="M114.17 0.241333H114.758V0.826294L134.51 20.4767C136.868 22.8223 136.868 26.638 134.51 28.9835L114.758 48.6329V49.2179H114.171L113.758 49.629L113.345 49.2179H25.0796L24.6665 49.629L24.2534 49.2179H23.6665V48.6329L3.91455 28.9835C1.55695 26.638 1.55711 22.8223 3.91455 20.4767L23.6665 0.826294V0.241333H24.2544L24.6665 -0.168823L25.0786 0.241333H113.346L113.758 -0.168823L114.17 0.241333Z" fill="#1F1D29"/>
<path d="M114.17 0.241333H114.758V0.826294L134.51 20.4767C136.868 22.8223 136.868 26.638 134.51 28.9835L114.758 48.6329V49.2179H114.171L113.758 49.629L113.345 49.2179H25.0796L24.6665 49.629L24.2534 49.2179H23.6665V48.6329L3.91455 28.9835C1.55695 26.638 1.55711 22.8223 3.91455 20.4767L23.6665 0.826294V0.241333H24.2544L24.6665 -0.168823L25.0786 0.241333H113.346L113.758 -0.168823L114.17 0.241333Z" fill="url(#paint16_linear_1039_710)" fill-opacity="0.72"/>
<path d="M114.17 0.241333H114.758V0.826294L134.51 20.4767C136.868 22.8223 136.868 26.638 134.51 28.9835L114.758 48.6329V49.2179H114.171L113.758 49.629L113.345 49.2179H25.0796L24.6665 49.629L24.2534 49.2179H23.6665V48.6329L3.91455 28.9835C1.55695 26.638 1.55711 22.8223 3.91455 20.4767L23.6665 0.826294V0.241333H24.2544L24.6665 -0.168823L25.0786 0.241333H113.346L113.758 -0.168823L114.17 0.241333Z" fill="url(#paint17_linear_1039_710)"/>
<path d="M114.17 0.241333H114.758V0.826294L134.51 20.4767C136.868 22.8223 136.868 26.638 134.51 28.9835L114.758 48.6329V49.2179H114.171L113.758 49.629L113.345 49.2179H25.0796L24.6665 49.629L24.2534 49.2179H23.6665V48.6329L3.91455 28.9835C1.55695 26.638 1.55711 22.8223 3.91455 20.4767L23.6665 0.826294V0.241333H24.2544L24.6665 -0.168823L25.0786 0.241333H113.346L113.758 -0.168823L114.17 0.241333Z" stroke="#290D1B" stroke-width="2"/>
</mask>
<g mask="url(#mask1_1039_710)">
<path d="M-8.1842 26.655H146.994C136.67 36.9793 125.665 45.0915 114.264 50.9412H24.4711C13.187 45.1329 2.21385 37.0531 -8.1842 26.655Z" fill="url(#paint18_linear_1039_710)" fill-opacity="0.5"/>
<path d="M128.126 15.8573C108.629 28.2233 90.0015 36.2546 78.8387 22.4195C66.6767 7.34603 34.4392 25.1281 16.8851 8.13169L23.7755 1.24129L113.494 1.24129L128.126 15.8573Z" fill="url(#paint19_linear_1039_710)" fill-opacity="0.35"/>
</g>
</g>
<defs>
<filter id="filter0_i_1039_710" x="1.37634" y="1.01141" width="134.132" height="48.977" filterUnits="userSpaceOnUse" color-interpolation-filters="sRGB">
<feFlood flood-opacity="0" result="BackgroundImageFix"/>
<feBlend mode="normal" in="SourceGraphic" in2="BackgroundImageFix" result="shape"/>
<feColorMatrix in="SourceAlpha" type="matrix" values="0 0 0 0 0 0 0 0 0 0 0 0 0 0 0 0 0 0 127 0" result="hardAlpha"/>
<feOffset/>
<feGaussianBlur stdDeviation="12.5"/>
<feComposite in2="hardAlpha" operator="arithmetic" k2="-1" k3="1"/>
<feColorMatrix type="matrix" values="0 0 0 0 0 0 0 0 0 0 0 0 0 0 0 0 0 0 0.42 0"/>
<feBlend mode="normal" in2="shape" result="effect1_innerShadow_1039_710"/>
</filter>
<clipPath id="paint9_diamond_1039_710_clip_path"><path d="M23.8965 2.01141V1.01141H23.4837L23.1912 1.3025L23.8965 2.01141ZM112.988 2.01141L113.693 1.3025L113.401 1.01141H112.988V2.01141ZM112.988 48.9884V49.9884H113.401L113.693 49.6973L112.988 48.9884ZM23.8965 48.9884L23.1912 49.6973L23.4837 49.9884H23.8965V48.9884ZM92.9417 29.0445L92.2364 29.7534L92.9417 29.0445ZM92.9417 21.9553L93.647 22.6643L92.9417 21.9553ZM133.035 21.9553L132.329 22.6643L133.035 21.9553ZM133.035 29.0445L132.329 28.3356L133.035 29.0445ZM43.9429 21.9553L44.6482 21.2464L43.9429 21.9553ZM43.9429 29.0445L43.2376 28.3356L43.9429 29.0445ZM23.8965 2.01141V3.01141H112.988V2.01141V1.01141H23.8965V2.01141ZM112.988 2.01141H111.988V48.9884H112.988H113.988V2.01141H112.988ZM112.988 48.9884V47.9884H23.8965V48.9884V49.9884H112.988V48.9884ZM23.8965 48.9884H24.8965V2.01141H23.8965H22.8965V48.9884H23.8965ZM23.8965 2.01141L23.1912 2.72033L43.2376 22.6643L43.9429 21.9553L44.6482 21.2464L24.6017 1.3025L23.8965 2.01141ZM43.9429 29.0445L43.2376 28.3356L23.1912 48.2795L23.8965 48.9884L24.6017 49.6973L44.6482 29.7534L43.9429 29.0445ZM23.8965 48.9884L24.6017 48.2795L4.55523 28.3356L3.84994 29.0445L3.14465 29.7534L23.1912 49.6973L23.8965 48.9884ZM3.84994 21.9553L4.55523 22.6642L24.6017 2.72033L23.8965 2.01141L23.1912 1.3025L3.14465 21.2464L3.84994 21.9553ZM112.988 2.01141L112.283 2.72033L132.329 22.6643L133.035 21.9553L133.74 21.2464L113.693 1.3025L112.988 2.01141ZM133.035 29.0445L132.329 28.3356L112.283 48.2795L112.988 48.9884L113.693 49.6973L133.74 29.7534L133.035 29.0445ZM112.988 48.9884L113.693 48.2795L93.647 28.3356L92.9417 29.0445L92.2364 29.7534L112.283 49.6973L112.988 48.9884ZM92.9417 21.9553L93.647 22.6643L113.693 2.72033L112.988 2.01141L112.283 1.3025L92.2364 21.2464L92.9417 21.9553ZM92.9417 29.0445L93.647 28.3356C92.0752 26.7719 92.0752 24.228 93.647 22.6643L92.9417 21.9553L92.2364 21.2464C89.8787 23.592 89.8787 27.4078 92.2364 29.7534L92.9417 29.0445ZM133.035 21.9553L132.329 22.6643C133.901 24.228 133.901 26.7719 132.329 28.3356L133.035 29.0445L133.74 29.7534C136.098 27.4078 136.098 23.592 133.74 21.2464L133.035 21.9553ZM3.84994 29.0445L4.55523 28.3356C2.98344 26.7719 2.98344 24.228 4.55523 22.6642L3.84994 21.9553L3.14465 21.2464C0.78697 23.592 0.786968 27.4078 3.14465 29.7534L3.84994 29.0445ZM43.9429 21.9553L43.2376 22.6643C44.8094 24.228 44.8094 26.7719 43.2376 28.3356L43.9429 29.0445L44.6482 29.7534C47.0059 27.4078 47.0059 23.592 44.6482 21.2464L43.9429 21.9553Z" mask="url(#path-1-outside-1_1039_710)"/></clipPath><linearGradient id="paint0_linear_1039_710" x1="68.4423" y1="-29.5633" x2="68.4423" y2="38.2068" gradientUnits="userSpaceOnUse">
<stop offset="0.45" stop-opacity="0"/>
<stop offset="1"/>
</linearGradient>
<linearGradient id="paint1_linear_1039_710" x1="68.4423" y1="2.01141" x2="68.4423" y2="48.9884" gradientUnits="userSpaceOnUse">
<stop stop-opacity="0"/>
<stop offset="0.92" stop-color="#451832"/>
</linearGradient>
<linearGradient id="paint2_linear_1039_710" x1="68.4423" y1="2.01141" x2="68.4423" y2="20.4942" gradientUnits="userSpaceOnUse">
<stop/>
<stop offset="1" stop-opacity="0"/>
</linearGradient>
<linearGradient id="paint3_linear_1039_710" x1="68.4423" y1="-29.5633" x2="68.4423" y2="38.2068" gradientUnits="userSpaceOnUse">
<stop offset="0.45" stop-opacity="0"/>
<stop offset="1"/>
</linearGradient>
<linearGradient id="paint4_linear_1039_710" x1="68.4423" y1="2.01141" x2="68.4423" y2="48.9884" gradientUnits="userSpaceOnUse">
<stop stop-opacity="0"/>
<stop offset="0.92" stop-color="#451832"/>
</linearGradient>
<linearGradient id="paint5_linear_1039_710" x1="68.4423" y1="2.01141" x2="68.4423" y2="20.4942" gradientUnits="userSpaceOnUse">
<stop/>
<stop offset="1" stop-opacity="0"/>
</linearGradient>
<linearGradient id="paint6_linear_1039_710" x1="68.4423" y1="-29.5633" x2="68.4423" y2="38.2068" gradientUnits="userSpaceOnUse">
<stop offset="0.45" stop-opacity="0"/>
<stop offset="1"/>
</linearGradient>
<linearGradient id="paint7_linear_1039_710" x1="68.4423" y1="2.01141" x2="68.4423" y2="48.9884" gradientUnits="userSpaceOnUse">
<stop stop-opacity="0"/>
<stop offset="0.92" stop-color="#451832"/>
</linearGradient>
<linearGradient id="paint8_linear_1039_710" x1="68.4423" y1="2.01141" x2="68.4423" y2="20.4942" gradientUnits="userSpaceOnUse">
<stop/>
<stop offset="1" stop-opacity="0"/>
</linearGradient>
<linearGradient id="paint9_diamond_1039_710" x1="0" y1="0" x2="500" y2="500" gradientUnits="userSpaceOnUse">
<stop stop-color="#9B5578"/>
<stop offset="0.401" stop-color="#C35E90"/>
<stop offset="1" stop-color="#2A0B1A"/>
</linearGradient>
<linearGradient id="paint10_linear_1039_710" x1="35.701" y1="2.01141" x2="35.701" y2="48.9884" gradientUnits="userSpaceOnUse">
<stop offset="0.3" stop-color="#120C1E" stop-opacity="0"/>
<stop offset="0.817308" stop-color="#451832"/>
</linearGradient>
<linearGradient id="paint11_linear_1039_710" x1="101.425" y1="2.01141" x2="101.425" y2="48.9884" gradientUnits="userSpaceOnUse">
<stop offset="0.3" stop-color="#120C1E" stop-opacity="0"/>
<stop offset="0.817308" stop-color="#451832"/>
</linearGradient>
<linearGradient id="paint12_linear_1039_710" x1="69.2124" y1="2.78156" x2="69.2124" y2="38.977" gradientUnits="userSpaceOnUse">
<stop offset="0.25" stop-opacity="0"/>
<stop offset="1"/>
</linearGradient>
<linearGradient id="paint13_linear_1039_710" x1="69.2124" y1="2.78156" x2="69.2124" y2="49.7586" gradientUnits="userSpaceOnUse">
<stop stop-opacity="0"/>
<stop offset="0.92" stop-color="#290D1B"/>
</linearGradient>
<linearGradient id="paint14_linear_1039_710" x1="69.2124" y1="34.0243" x2="69.2124" y2="-12.472" gradientUnits="userSpaceOnUse">
<stop offset="0.277409" stop-opacity="0"/>
<stop offset="0.7" stop-color="#6B468B"/>
</linearGradient>
<linearGradient id="paint15_linear_1039_710" x1="69.4049" y1="32.431" x2="69.4049" y2="-13.3908" gradientUnits="userSpaceOnUse">
<stop offset="0.2" stop-color="#2D1D5D" stop-opacity="0"/>
<stop offset="0.7" stop-color="#704096"/>
</linearGradient>
<linearGradient id="paint16_linear_1039_710" x1="69.2123" y1="1.24133" x2="69.2123" y2="37.4367" gradientUnits="userSpaceOnUse">
<stop offset="0.25" stop-opacity="0"/>
<stop offset="1"/>
</linearGradient>
<linearGradient id="paint17_linear_1039_710" x1="69.2123" y1="1.24133" x2="69.2123" y2="48.2183" gradientUnits="userSpaceOnUse">
<stop stop-opacity="0"/>
<stop offset="0.92" stop-color="#290D1B"/>
</linearGradient>
<linearGradient id="paint18_linear_1039_710" x1="69.4049" y1="16.3571" x2="69.4049" y2="66.701" gradientUnits="userSpaceOnUse">
<stop offset="0.277409" stop-opacity="0"/>
<stop offset="0.96" stop-color="#C7B6D6"/>
</linearGradient>
<linearGradient id="paint19_linear_1039_710" x1="93.1102" y1="-25.2698" x2="101.557" y2="34.7413" gradientUnits="userSpaceOnUse">
<stop offset="0.221" stop-opacity="0"/>
<stop offset="0.7" stop-color="#C787FF"/>
</linearGradient>
</defs>
</svg>
